<?xml version="1.0" standalone="no"?>
<!DOCTYPE svg PUBLIC "-//W3C//DTD SVG 1.1//EN" "http://www.w3.org/Graphics/SVG/1.1/DTD/svg11.dtd" >
<svg xmlns="http://www.w3.org/2000/svg" xmlns:xlink="http://www.w3.org/1999/xlink" version="1.1">
<metadata>
Created by FontForge 20170924 at Mon Dec 23 20:31:57 2019
 By root
Copyright (c) 2019 by adinuritype. All rights reserved.
</metadata>
<defs>
<font id="Symphony-Regular" horiz-adv-x="244" >
  <font-face 
    font-family="Symphony"
    font-weight="400"
    font-stretch="normal"
    units-per-em="1000"
    panose-1="0 0 5 0 0 0 0 0 0 0"
    ascent="800"
    descent="-200"
    x-height="337"
    cap-height="595"
    bbox="-263.077 -294 900 780"
    underline-thickness="50"
    underline-position="-100"
    unicode-range="U+0020-2248"
  />
    <missing-glyph />
    <glyph glyph-name="space" unicode=" " horiz-adv-x="300" 
 />
    <glyph glyph-name="A" unicode="A" horiz-adv-x="534" 
d="M67 179l-18 -29q-7 -13 -32 -54t-33 -59q-9 -22 -12 -35l-1 -5q0 -5 3 -9q7 -10 18 -10t17 8q7 7 11 15l21 33q85 131 111 165q3 6 13 8q53 7 115 7q22 0 68 -2q1 0 4.5 -0.5t3.5 -2.5t-3 -8q-19 -42 -32 -84q-13 -50 -13 -85q0 -20 7 -37q6 -15 20 -21q15 -5 24 -5
q6 0 14 2q10 3 15 15l3 18q3 20 11 45q13 48 32 100q7 24 15 43q1 5 3 6t8 1l13 -1q60 -14 91 -27q2 -1 6 -2.5t6 -4.5q3 -3 6 -3q4 1 8.5 5.5t7.5 8.5v3q0 7 -7 12l-13 8q-5 2 -13.5 6.5t-14.5 6.5q-47 21 -75 27q-5 2 -5.5 4t1.5 6q26 60 41 87q48 96 118 218q16 21 22 41
q2 3 2 9q0 7 -9 13t-18 6q-3 1 -8 1q-9 0 -14 -5q-2 0 -4 -1.5t-4 -2.5q-21 -7 -76 -34q-49 -25 -82.5 -44.5t-64.5 -43.5q-35 -23 -94 -74l-26 -22q-74 -62 -131 -135q-2 -4 -12 -8l-45 -9q-45 -13 -62 -21q-22 -11 -32 -31q-4 -12 -4 -18q0 -12 12 -11q1 0 10 3
q32 10 48 14l24 7q2 1 5 2t6 0q-1 -2 -6 -10zM553 551q-31 -40 -58.5 -86.5t-71.5 -127.5l-40 -71q-2 -4 -5 -5.5t-7 -1.5q-58 8 -108 8h-45q-3 -1 -9 -1q-1 3 1 5t2 3q71 80 103 111q35 34 85 70l33 24q43 35 120 82l7 2z" />
    <glyph glyph-name="B" unicode="B" horiz-adv-x="466" 
d="M328 567q-28 -30 -54 -63q-56 -76 -106 -156q-5 -8 -13 -11q-23 -10 -39 -23q-19 -16 -16 -39l-1 -9q0 -12 5 -16q4 -3 4 -6t-1 -4.5t-2 -3.5q-28 -54 -40 -82q-21 -45 -26 -73l-4 -18q-1 -6 -8 -6q-4 0 -6 1q-6 2 -5 7q2 6 0 14q-3 10 -12 6q-26 -12 -24 -41
q0 -21 18 -32q3 -1 9.5 -4.5t12.5 -4.5q13 -3 39 -7q21 -3 40 -3q37 0 78 11q53 16 111 55q66 46 102 109q25 44 25 90q0 56 -38 83q-9 6 -10 7l3 4q34 29 55 52q39 45 52 91q9 31 9 50q0 53 -37 72q-15 6 -26 9q-26 6 -50 6q-21 0 -42 -3q-46 -6 -109 -33q-27 -11 -49 -35
q-6 -8 -8 -13q-3 -8 -1 -17q1 -7 11 -7q6 0 6 6q0 2 4 6l20 10q56 23 99 29q24 4 38 4zM389 577q6 0 10 -1q24 -5 38 -15q10 -7 15 -20q2 -4 2 -13q0 -7 -1 -11q-9 -24 -33 -50q-35 -37 -88 -74q-20 -14 -30 -20q-7 -5 -14 -5l-14 -1q-1 0 -3 -0.5t-3 1.5q-1 1 0.5 3t1.5 3
q6 10 11 17.5t8 13.5l12 18q30 48 72 107l12 18q5 8 5 15t-6 14h5zM90 63.5q1 1.5 2 2.5q9 10 16.5 23.5t9.5 16.5l60 115q5 10 10 18t8 14q3 7 10 8q48 12 89 38q9 5 19 2q30 -7 53 -29q14 -14 14 -31q0 -12 -5 -21q-11 -20 -29 -39q-44 -48 -117 -81q-58 -26 -103 -35
l-33 -6q-3 0 -5 1q0 2 1 3.5z" />
    <glyph glyph-name="C" unicode="C" horiz-adv-x="308" 
d="M54 121q2 21 6 40q14 64 42 132q30 76 87 151q48 59 88 86q38 26 66 32l8 2q7 0 7 -7l2 -16q0 -9 2 -27q2 -11 11 -11q13 0 25 14q10 15 10 30q0 19 -15 33q-26 26 -61 38q-19 6 -37 6q-26 0 -49 -10q-6 -3 -14 -7.5t-17 -10.5q-60 -37 -116 -107q-36 -44 -72 -112
q-29 -51 -44.5 -104t-23.5 -118q-1 -6 -1 -18q0 -32 9 -65.5t25 -54.5q14 -19 25.5 -28.5t26.5 -15.5q15 -7 33 -7q27 0 55 21q40 30 60 46q18 15 35 24q5 1 5 6q0 4 -4 7q-7 7 -18 7q-16 2 -41 -13q-10 -5 -22.5 -12.5t-19.5 -11.5q-7 -5 -21 -13l-31 -17h-3q-6 0 -9 6
q-5 7 -5 10q-8 21 -8 46q0 19 4 49z" />
    <glyph glyph-name="D" unicode="D" horiz-adv-x="460" 
d="M317 544l-39 -54q-48 -65 -93 -140q-42 -69 -89 -168q-16 -33 -26.5 -59.5t-14.5 -53.5q-2 -7 -8 -7q-8 -1 -23 -1t-23 1q-5 1 -8 6t-6 5q-6 0 -6 -8q-1 -1 -1 -3q-1 -35 27 -44q4 -2 7 -2q20 -4 29 -4q4 0 10.5 -1t11.5 -2q2 -1 7 -1q6 0 9 2q2 2 7 2l21 1q58 4 109 36
t101 80q34 32 72 74q52 59 85 116q26 43 40 84t14 86q0 30 -9 57q-23 66 -88 78q-19 4 -40 4q-11 0 -31 -2q-65 -8 -115 -38q-23 -12 -40 -33q-7 -8 -7 -19q0 -8 4 -15q3 -9 11 -5q3 1 14 6q29 14 87 28q1 1 5 1q-1 -4 -4 -7zM154 96q1 2 1 3q43 95 73 153q35 69 66 121
q14 25 25.5 43.5t19.5 31.5l18 28l33 50l13 20q4 6 5.5 7t8.5 -1q37 -6 60 -32q17 -20 17 -44q0 -9 -3 -20q-8 -30 -26 -64q-27 -53 -80 -111q-75 -84 -169 -152q-14 -10 -57 -35l-5 -2q-1 2 0 4z" />
    <glyph glyph-name="E" unicode="E" horiz-adv-x="344" 
d="M207 556.5q-1 -1.5 -2 -2.5l-69 -79q-46 -53 -77 -101q-10 -15 -24 -19l-8 -4q-11 -6 -16 -20q-1 -3 -1 -7q0 -5 9 -10q5 -3 2 -7l-1 -3q-32 -75 -39 -148q-1 -7 -1 -22q0 -41 14 -81q6 -18 19 -34q15 -16 35 -16q18 0 44 11l47 19q24 9 40.5 13.5t34.5 5.5q13 0 25 3
q6 2 8 4t2 7v3q0 9 -9 12l-29 7q-28 5 -49 5q-30 0 -54 -8q-28 -8 -42 -11q-18 -4 -27 -2q-9 1 -11.5 3.5t-1.5 11.5v7q6 41 18 81q19 62 58 129q1 2 3.5 6t4.5 5t5 1q36 0 89 -7q34 -5 58 -13l5 -2.5t4 -3.5q6 -7 12 0q10 11 11 26q0 10 -7 17q-7 8 -18 12q-64 27 -110 31
q-7 0 -7.5 1.5t3.5 7.5l54 77q46 62 67 94q5 8 16 8l33 -2q11 0 33 -2q56 -2 84 -7q25 -3 45 -10q5 -1 6 -2.5t1 -7.5q2 -9 9 -5l4 3q10 7 15 21q2 8 2 10q0 10 -9 17q-16 10 -24 13q-67 24 -109 31q-28 5 -63 7q-8 0 -9 6q0 3 -1 4q-3 8 -12 4l-8 -5q-9 -9 -21 -7
q-69 1 -140 -17q-22 -7 -29 -28q-3 -7 -3 -12q0 -14 20 -16q6 -1 18 -1q13 0 39 2q12 0 34 2l2 -1q-1 -3 -2 -4.5z" />
    <glyph glyph-name="F" unicode="F" horiz-adv-x="328" 
d="M107 321l-39 -70q-39 -72 -68 -135q-14 -31 -18 -51q-2 -5 -2 -17q0 -11 2 -17q6 -17 23 -17h3q5 0 8 6l3 7q17 20 41 66l65 127l58 104q5 8 14 8q19 0 57 2q6 1 17 1t17 -1h16q11 0 16 1q8 2 12 7q4 8 4 9q0 6 -9 9q-7 2 -23 4q-9 1 -34 5.5t-45 4.5q-10 0 -10 2l4 8
l72 117q23 38 26 44l13 22q3 7 11 7l45 2q16 0 48 2l27 2q30 3 59 3h18q9 0 14 5q6 6 6 11q0 8 -11 10q-9 2 -28 6.5t-34 5.5q-25 3 -55 4t-39 1h-34q-51 0 -104 -3q-36 -2 -54 -5q-24 -4 -33 -9q-20 -10 -25 -32v-3q0 -9 10 -10h19l95 6q4 2 5 -1q0 -2 -4 -6
q-57 -77 -123 -183q-6 -9 -15 -10q-19 -1 -48 -7q-24 -5 -41 -13q-15 -6 -20 -20q-1 -2 -1 -6q0 -8 11 -8q1 0 22 3l57 7q1 -3 -1 -5z" />
    <glyph glyph-name="G" unicode="G" horiz-adv-x="341" 
d="M249 218q-40 -69 -69 -103q-29 -37 -52 -52q-18 -14 -32 -19q-9 -3 -15 -3t-8.5 3.5t-7.5 13.5q-6 13 -8 42q-3 61 12 120q14 58 45 129q63 139 172 225q29 24 62 33l7 1q3 0 3 -3v-4l-12 -56q-8 -41 -31 -89l-10 -24q-3 -7 -3 -16t5.5 -13.5t13.5 -2.5q6 2 13 5
q17 10 30 29q11 15 27 49q20 37 20 82q0 20 -7 37q-18 38 -63 54q-10 3 -22 3q-39 -3 -70 -21q-23 -14 -50 -36q-67 -53 -110 -119q-32 -49 -59 -109q-21 -45 -32 -87q-18 -60 -18 -121q0 -37 12 -72q21 -60 78 -82q17 -6 33 -6q26 0 50 15q17 11 31.5 24.5t34.5 35.5
q18 21 21 25q28 37 49 79q11 20 27 62q2 6 2.5 14t0.5 12q1 3 -1 5q-10 13 -21 9l-9 -3q-26 -10 -41 -11q-9 -1 -18 -2.5t-19 -2.5q-26 -4 -39 -4l-13 1q-11 0 -9 -11q1 -6 7 -12q16 -18 37 -22q8 -2 24 -2q13 0 19 1l14 4q1 -3 -1 -5z" />
    <glyph glyph-name="H" unicode="H" horiz-adv-x="431" 
d="M82 316q-40 -74 -56 -114q-34 -82 -45 -139q-1 -7 -1 -19q0 -17 4 -30q4 -12 13 -16q5 -2 15 -4l5 -1q8 0 13 11q7 23 17 52q13 35 17 44l43 94q24 54 74 138q5 7 11 7l35 3q7 0 19 1t21 2q16 1 47 1q5 0 5.5 -1t-1.5 -5l-3 -5q-18 -24 -32 -47q-47 -76 -69 -149
q-14 -40 -14 -70q0 -19 9 -31q10 -12 16 -18q10 -8 15 -11q7 -4 17 -4q6 0 9 1q7 2 8 6.5t1 15.5v11q0 13 5 30q12 38 46 110q52 105 86 161q4 7 13 7q12 1 27 -0.5t20 -1.5q15 0 22 -5q3 -2 7 2q6 6 7 12v4q0 10 -10 14q-5 3 -11 4l-39 8q-5 1 -5.5 2t1.5 6l27 40
q33 52 75 103q20 24 58 72l5 7q2 4 2 6q0 4 -5 7q-8 4 -12 4q-3 1 -9 1q-10 2 -13 2q-20 0 -38 -15q-13 -9 -27 -25q-25 -26 -71 -82q-44 -55 -77 -111q-5 -8 -12 -7q-25 1 -73 -1l-24 -1h-8q-4 -1 -12 -1q-6 0 -9 1q0 2 4 8q56 82 86 122l57 74q7 9 11 18q1 2 1 5q0 4 -3 8
q-9 11 -22 11q-10 0 -18 -8q-7 -7 -13.5 -12t-12.5 -10l-19 -19l-30 -29q-43 -44 -99 -120l-36 -53q-6 -8 -14 -9l-31 -6q-31 -6 -55 -19q-20 -10 -25 -33v-5q0 -11 14 -7q30 10 70 16z" />
    <glyph glyph-name="I" unicode="I" horiz-adv-x="393" 
d="M361.5 535.5q-4.5 -5.5 -7.5 -10.5q-40 -43 -67 -84q-47 -69 -115 -196q-46 -86 -68 -160q-1 -4 -2.5 -5.5t-6.5 -1.5q-18 0 -56 -6q-23 -3 -40 -11q-24 -13 -27 -44v-2q0 -10 12 -10l10 1q42 7 74 11l30 2q11 0 31 2l18 1q21 0 59 -4q3 0 12 -1t16 -4l4 -1q6 0 9 5
q6 5 8 12l1 6q0 10 -10 16q-11 5 -20 8l-46 11q-7 1 -7.5 3t2.5 8l1 2l23 46l15 28q45 91 88 164q29 49 91 145q34 53 49 85q4 4 8 4q4 1 11 2.5t12 1.5h54q8 0 12 -3q3 -1 6 0q8 8 8 16q0 3 -2 6t-6 4q-5 2 -15 4q-70 11 -112 9l-30 -1q-8 -1 -32.5 -2.5t-43.5 -5.5
q-29 -4 -44 -11q-21 -11 -24 -38v-3q1 -6 3.5 -8t8.5 -1q4 1 8 3t10 4q7 1 32.5 6t48.5 6q9 2 13 1q-2 -4 -6.5 -9.5z" />
    <glyph glyph-name="J" unicode="J" horiz-adv-x="434" 
d="M438.5 569q-0.5 -2 -0.5 -3l-8 -22q-10 -31 -19 -52q-52 -135 -116 -248q-44 -81 -95 -142q-21 -27 -49 -46q-6 -4 -9 -3q-19 2 -28 6q-27 12 -48 40q-36 48 -36 91l1 13q0 6 -1 9q-3 6 -9 4q-12 -2 -18 -8q-23 -23 -23 -58q0 -32 16 -58q13 -24 38 -47q49 -41 103 -41
q29 0 56 10q39 14 81 57q32 35 69 94q54 89 97 210q32 88 46 184q6 38 6 56q0 9 1 14l1 5q0 6 -5 10t-12 4q-19 0 -59 -10l-188 -50q-18 -3 -20 -3q-6 0 -9 1h-2q-5 0 -7 -6v-4q0 -5 1 -9q1 -6 7 -18q9 -19 26.5 -30t37.5 -11q7 0 11 1q16 2 23 4q64 18 130 55q2 1 4.5 3
t5.5 2q1 -2 0.5 -4z" />
    <glyph glyph-name="K" unicode="K" horiz-adv-x="484" 
d="M204 357q6 11 15 26.5t19 34.5q7 9 12 20q10 17 25 38.5t23 33.5q18 24 36 51q9 14 25 44q4 7 5 14q1 1 1 5q0 6 -4 10q-6 7 -21 7q-6 0 -12 -2q-8 -2 -25 -19l-14 -17q-36 -43 -54 -68l-14 -19q-35 -47 -58 -89q-11 -22 -20 -38t-16 -28q-29 -50 -51 -95
q-32 -58 -53 -111l-8 -19q-18 -40 -24 -69q-1 -4 -2.5 -13.5t-1.5 -16.5q0 -6 1 -9q6 -20 18 -20t18 4q10 6 13 10t9 14q5 8 11 22t10 22l10 23l20 46q13 28 25 59q22 53 30 68q3 8 10 19t11 12h1q4 0 4.5 -7t1.5 -10q7 -35 19 -75q14 -40 21 -54q24 -54 65 -106
q24 -32 53 -50q27 -17 61 -17q7 0 23 2q8 2 11 4l5 5l5 5q1 2 1 5q0 12 -15 17q-5 2 -15 2q-10 1 -17 10q-36 41 -59 80q-57 92 -76 134q-12 30 -17 46q-2 5 -1 6.5t5 2.5q4 2 10.5 4t10.5 4q36 13 113 53q52 33 96 72q6 7 13 13l15 14q14 12 20 19q21 20 59 64q19 20 33 47
q8 16 8 32q0 12 -5 17q-2 2 -8 2q-14 0 -24 -6q-9 -4 -17 -11l-16 -14q-24 -20 -46 -40l-100 -91q-59 -52 -107 -81q-6 -4 -39 -25t-58 -32q-1 0 -3 -1t-4 0q0 4 4 10z" />
    <glyph glyph-name="L" unicode="L" horiz-adv-x="372" 
d="M309 666.5q25 9.5 47 9.5q13 0 20.5 -3.5t7.5 -8.5q0 -6 -10 -15q-40 -31 -126.5 -160.5t-155 -267.5t-68.5 -210q0 -9 15 -9q19 0 76 16q52 13 79.5 19t53.5 6q31 0 54 -8.5t35.5 -20.5t12.5 -21t-11 -9q-50 0 -89 -7t-87 -20q-57 -16 -85 -16q-37 0 -67 23t-47 56
t-17 62q0 65 50 168.5t124.5 209.5t143.5 178q19 19 44 28.5z" />
    <glyph glyph-name="M" unicode="M" horiz-adv-x="482" 
d="M395 413q-23 -52 -27 -61q-38 -87 -57 -160q-11 -42 -14 -78q-1 -6 -1 -18q0 -13 2 -30t3 -25q0 -7 3 -13q3 -8 10.5 -13.5t16.5 -6.5q9 0 10 8q4 13 16 39q10 22 14 40q1 8 5 22q7 34 19.5 70t15.5 45q38 111 81 198l61 119q20 38 27 59l2 8q0 8 -10 15q-8 5 -16 5
t-19 -7l-8 -8l-28 -29l-42 -43q-47 -50 -89 -104q-57 -73 -112 -166l-6 -9q-1 2 0 4t1 3q9 23 15 45q14 53 36.5 105t54.5 115q27 51 30 58q2 3 2 9q0 4 -6 10q-10 8 -21 11q-3 1 -8 1q-12 0 -19 -10q-4 -6 -7 -8q-29 -26 -58 -60l-16 -17q-21 -24 -44 -55.5t-44 -61.5
q-43 -62 -90 -156q-22 -40 -46 -95q-29 -65 -48 -133q-2 -5 -4 -21v-4q0 -7 6 -12q5 -5 10 -5q6 0 10 8l9 24q28 76 68 160q33 67 61 116q34 62 85 138l1.5 2t3.5 2l-3 -7q-11 -26 -23 -65q-11 -48 -11 -81v-35q0 -6 2 -18q2 -13 12.5 -20.5t24.5 -5.5q11 3 16 11
q17 29 53 85q38 59 97 133l12 14z" />
    <glyph glyph-name="N" unicode="N" horiz-adv-x="443" 
d="M296 470q0 -2 -2 -8q-8 -20 -11 -30q-47 -136 -65 -259q-5 -35 -4 -62q0 -15 6 -49l4 -28q3 -17 21 -22q4 -2 12 -2q14 0 20 15q0 2 1 3q35 87 86 181q52 96 122 197l110 154l15 23q2 2 2 7q0 7 -3 13l-4 3q-8 3 -15 0q-7 -4 -12 -9q-37 -32 -59 -63l-42 -56
q-54 -72 -79 -110q-71 -107 -104 -177q-3 -5 -5 -6q1 12 5 27q21 110 57 217q8 24 15 44.5t13 37.5l21 60q6 18 9 36v3q0 9 -7 13q-6 5 -17 5q-15 0 -23 -11q-3 -3 -9 -16q-3 -6 -11 -16l-35 -43q-9 -11 -29 -33l-28 -33q-84 -99 -133 -179q-67 -105 -104 -189
q-28 -67 -34 -106q-2 -6 4 -6h4q15 0 20 11l5 7q18 30 52 94l12 24q16 33 38 71q56 95 157 237q7 11 23 31z" />
    <glyph glyph-name="O" unicode="O" horiz-adv-x="354" 
d="M62 218q20 86 69 168q32 55 77 105q38 42 77 67q22 12 34 16q8 3 14 3q10 0 18 -7q6 -4 16 -7l6 -1q7 0 10 4t0 11q-1 3 -3 5.5t-3 3.5q-14 14 -34 22q-27 11 -51 11q-26 0 -53 -12q-19 -10 -44 -28q-41 -30 -79 -78q-82 -102 -117 -220q-19 -63 -19 -123q0 -21 1 -32
q5 -41 21 -72q15 -27 41.5 -41t55.5 -14q21 0 40 8q35 16 68 50q69 74 105 168q54 135 62 250v10q0 14 -3 29q-3 11 -11 25q-4 5 -11 7q-13 0 -7 -10q7 -15 7 -34q0 -20 -6 -56q-12 -63 -39 -141q-43 -119 -115 -207q-30 -37 -59 -56q-17 -10 -31 -14q-8 -2 -11 -2
q-9 0 -16 10q-5 6 -11 22q-11 29 -9 67q-1 37 10 93z" />
    <glyph glyph-name="P" unicode="P" horiz-adv-x="449" 
d="M295.5 559q-1.5 -2 -1.5 -3l-21 -30q-6 -9 -15 -20.5t-18 -26.5q-34 -48 -81 -124l-24 -38q-34 -54 -84 -147q-39 -75 -67 -162q-2 -10 -4 -15v-3q0 -5 3 -9q5 -5 16 -8t17 0q2 1 7 4t8 6.5t4 8.5l2 4l58 107q4 7 12 7q21 -1 46 2q48 7 116 34q131 55 209 175
q51 78 51 152q0 28 -10 58q-22 56 -78 89q-31 17 -66 17q-36 0 -72 -14q-46 -18 -77 -45q-13 -12 -20 -25q-2 -3 -2 -8q0 -6 5 -9q9 -8 20 -8q10 0 16 5l25 15q5 3 12 7t16 9q-1 -3 -2.5 -5zM115 138q84 152 130 225l32 51q50 82 64 102l15 24q5 8 13 20t17 28q3 6 10 6h8
q9 0 23 -2t27 -19q16 -22 19 -51q1 -6 1 -18q0 -37 -16 -75q-33 -82 -90 -151q-38 -47 -73 -73q-64 -49 -152 -70l-24 -5q-1 0 -3.5 -0.5t-3.5 0.5q-1 4 3 8z" />
    <glyph glyph-name="Q" unicode="Q" horiz-adv-x="426" 
d="M283 175q-8 21 -15 51q-7 26 -12 55q-1 7 -4 9t-9 1q-14 -1 -24.5 -8t-13.5 -22q-3 -12 -3 -25q0 -66 41 -126q5 -6 0 -11q-35 -48 -65 -70q-20 -15 -40 -22q-5 -2 -13 -2q-13 0 -24 9l-4 4q-17 14 -30 47q-13 36 -13 75q0 20 3 41q8 73 45 148q36 79 98 148q41 47 89 77
q32 20 58 22q3 1 8 1q8 0 14 -6q12 -8 19 -10q9 -2 12 3q3 3 -1 11q-6 11 -18 19q-31 22 -71 22q-36 0 -75 -18q-39 -19 -73 -53q-75 -72 -122 -160q-60 -107 -60 -216q0 -40 10 -76q14 -46 46 -78q41 -38 97 -38q16 0 32 3q37 8 74 41q21 19 39 42q3 4 4.5 4t5.5 -3
q28 -22 43 -30q28 -16 51 -16q25 0 41 18q2 2 2 4q4 7 -4 7q-5 0 -10 -3q-7 -4 -14 -1q-10 3 -16 7q-33 19 -65 57q-5 5 -1 10q2 2 4 6q48 82 68 170q8 38 10 84q1 16 1 49q0 49 -5 84q-4 25 -12 41q-12 19 -35 22h-4.5t-4.5 -4q-1 -3 5 -6q7 -3 11 -14q3 -6 3 -13
q3 -14 4 -31.5t1 -22.5q1 -18 -1 -54q-2 -34 -4 -52q-14 -108 -65 -202q-3 -5 -5 -7z" />
    <glyph glyph-name="R" unicode="R" horiz-adv-x="431" 
d="M98 124.5l1 -1.5q1 -4 15 -31q22 -39 53 -55q8 -4 28 -14.5t38 -16.5q18 -8 35 -9h5q15 0 26 7q3 2 3 5t-5 5h-6q-6 0 -12 3q-29 14 -43 31q-30 33 -42 57l-16 29l-21 40l-2 6q0 2 7 3q10 2 14 2q50 5 98 18q60 15 100 40q45 28 86 73q29 32 43 67q18 42 18 83
q0 38 -15 74q-22 53 -72 75q-30 13 -73 13q-28 0 -61 -5q-51 -7 -99 -32q-10 -5 -13 -8q-6 -4 -8 -14q0 -13 9 -27q7 -13 16 -13q3 0 11 3l3 1q34 13 75 19q3 3 5 0q-1 -3 -5 -7q-20 -23 -58 -71q-63 -79 -111 -155q-42 -68 -61 -103q-4 -6 -10 -7q-5 0 -16 -1.5t-20 -0.5
q-7 0 -10 3q-2 4 -6 3q-3 -2 -3 -8q1 -10 7.5 -18.5t16.5 -10.5q6 -2 9 -2q6 -1 6.5 -2.5t-2.5 -6.5l-15 -33q-25 -52 -40 -125q-1 -4 -1 -10q0 -18 20 -27q5 -3 9 -3q5 0 10 11q2 4 7.5 16.5t11.5 21.5q5 9 28 55q20 41 25 49q3 6 4 7q2 -1 3 -2.5zM157 240q24 43 80 125
q26 37 64 86l39 52l35 50q4 7 13 6q34 -3 57 -15q16 -7 30 -24q11 -17 10 -38q-5 -41 -33 -78q-32 -42 -79 -75q-50 -38 -132 -69q-42 -15 -76 -26q-8 -4 -11 -3q0 3 3 9z" />
    <glyph glyph-name="S" unicode="S" horiz-adv-x="294" 
d="M299 550q10 -3 11 -13q1 -5 1 -15q0 -17 -4 -30q-16 -70 -61 -130l-30 -41q-10 -13 -18 -30q-1 -2 -1 -5q0 -4 6 -9q4 -2 11 -2q17 0 35 16q43 33 79 80q31 44 43 93q3 14 3 26q0 33 -19 61q-48 69 -135 69q-13 0 -19 -1q-39 -4 -75 -21q-63 -28 -100 -78
q-30 -42 -41 -99q-5 -23 -5 -41q0 -59 45 -106q24 -25 61 -47l44 -24q8 -4 10 -15q0 -17 -1 -26q-8 -52 -45 -98q-13 -17 -40 -33q-5 -3 -7 -2q-1 1 -1 4v4q2 12 6 24q12 31 46 67q6 7 11 10t12 2q2 0 3 2t0 4l-3 3q-9 9 -21 9q-2 0 -10 -2t-24 -14q-24 -21 -51 -56
q-9 -14 -13.5 -25.5t-4.5 -25.5q0 -16 14 -30q24 -21 55 -21q9 0 14 1q50 10 88 51q29 33 37 85q1 6 1 17q0 38 -27 69q-18 21 -52 42q-8 4 -22 12t-23 15q-22 13 -26 38q-4 19 -2 47q5 43 24 80q30 54 94 88q50 25 86 25q25 0 41 -4z" />
    <glyph glyph-name="T" unicode="T" horiz-adv-x="318" 
d="M263 526q-7 -11 -23 -31l-25 -36l-60 -87q-4 -8 -14 -22q-37 -57 -72 -114q-26 -43 -45 -82q-18 -36 -27 -75l-7 -25q-4 -9 -7 -25q-3 -12 -3 -24q2 -17 18 -20h2q5 0 8 6l8 18q22 42 43 71q19 26 51 80l16 26q16 26 23 39q64 106 112 178q30 44 88 132q5 7 13 7
q23 1 69 5q34 2 51 4l47 6q31 4 44 5q14 2 19 11q8 8 5 15q-2 4 -7 5t-6 1q-30 2 -43 4q-41 7 -123 7q-32 0 -48 -1q-13 0 -19 2t-10 2q-6 0 -10 -3q-6 -4 -20 -6q-33 -2 -89 -8q-79 -9 -130 -22q-33 -7 -53 -18q-16 -7 -23 -15q-13 -16 -14 -33q0 -12 12 -11q4 0 12 2
l65 15q79 17 151 23q3 0 11 1.5t15 0.5q-1 -4 -5 -8z" />
    <glyph glyph-name="U" unicode="U" horiz-adv-x="371" 
d="M203 159l-2 -6q-16 -48 -21 -84l-6 -38v-3q0 -9 10 -16q9 -5 19 -6h6q7 0 11 3t6 11l11 33l21 55q38 99 48 121q33 79 60 127q44 81 123 206q12 16 20 32q2 4 2 7q0 5 -5 10q-9 11 -22 11q-10 0 -18 -6q-6 -4 -8 -7q-23 -20 -53 -57q-59 -73 -112 -175q-25 -49 -50 -112
q-5 -11 -11 -16q1 1 -25 -22q-8 -7 -45 -47q-38 -42 -56 -64q-32 -40 -52 -58q-4 -4 -6 -4q-1 5 -0.5 8.5t0.5 5.5q4 22 7 33q10 58 24 97q25 73 69 165q52 109 113 206l21 37q2 4 2 10q0 9 -5 14q-6 8 -13 12q-10 7 -17 7q-9 0 -19 -9q-12 -11 -22 -25q-21 -27 -50 -74
q-79 -127 -124 -230q-39 -86 -52 -172q-2 -20 -2 -28q0 -23 5 -39q11 -40 46 -57q10 -5 18 -5q12 0 23 8q12 9 21 21q11 15 38 42l19 21l51 57h2z" />
    <glyph glyph-name="V" unicode="V" horiz-adv-x="260" 
d="M56 112q17 93 26 132l6 25q3 12 11.5 45t16.5 59q16 52 58 152q2 5 9 21t10 31q1 3 1 9q0 17 -15 26q-6 5 -14 5q-7 0 -14 -7l-16 -18q-47 -61 -85 -146q-36 -87 -56 -189q-17 -75 -14 -136q0 -20 7 -46t11 -44q4 -25 29 -26h4q13 0 22 10q17 16 38 50q9 13 33 55l12 22
q16 31 31 55l30 54q46 84 70 126l25 44q28 48 41 72q14 27 36 59q8 11 17 28q4 6 4 9q0 6 -5 11q-4 2 -6 0t-3 -2q-17 -9 -27 -25q-5 -9 -17 -27q-18 -26 -32 -50l-72 -126l-45 -77q-34 -57 -106 -169l-21 -31q0 -1 -1 -3t-3 -3z" />
    <glyph glyph-name="W" unicode="W" horiz-adv-x="578" 
d="M271 302q0 -2 -2 -10q-20 -85 -20 -142q0 -42 14 -74q20 -50 76 -62q12 -2 19 -2q11 0 21 3q17 5 36 21q37 29 67 79q5 8 11.5 20t11.5 20q44 67 65 148q10 36 15 91q3 23 3 45q0 47 -6 77q-9 49 -14 65q-7 22 -18 34q-3 3 -9 7h-2q-3 0 -7 -4q-2 -2 -1 -3.5t1 -2.5
q3 -3 3 -9q2 -13 3 -29t1 -22q2 -48 2 -72q0 -23 -1 -35q-2 -32 -4 -50q-7 -63 -31 -130q-27 -76 -63 -126q-34 -48 -78 -80q-12 -9 -20 -11q-3 -1 -5 -1t-4 4q-7 11 -11 36q-1 7 -1 21q0 18 4 52q4 31 16 91q26 114 55 183l8 19q4 11 10.5 27.5t13.5 38.5q3 8 3 13
q0 14 -19 21q-2 0 -2 1q-8 2 -11 2q-10 0 -18 -11q-1 -1 -2 -2.5t-2 -4.5q-17 -26 -29 -48t-20 -33q-40 -56 -59 -85l-80 -121q-11 -17 -13 -19q-51 -76 -83 -117q-28 -34 -50 -51q-6 -6 -8 -5q-3 2 -3 5.5v4.5q-1 4 -1 13q0 7 1 16.5t2 14.5q9 61 42 150q27 69 68 142
q63 111 124 195l7 11q3 5 3 8q0 5 -3 9q-6 8 -13 12q-7 6 -15 6q-7 0 -15 -8q-16 -14 -32 -34q-46 -57 -88 -126q-56 -90 -86 -167q-36 -88 -46 -161q-2 -18 -2 -27q0 -25 7 -47q11 -35 43 -50q12 -5 21 -5q13 0 26 10q13 11 27 26q29 35 69 93q59 90 93 147q2 5 5 7v-2z
" />
    <glyph glyph-name="X" unicode="X" horiz-adv-x="477" 
d="M238 449q-8 52 -10 131q-2 22 -2 35q-2 20 -4 29q-1 14 -16 14q-26 -2 -37 -21q-9 -15 -12 -33q-7 -34 -9 -72q-1 -9 -1 -28q0 -54 14 -128v-6q0 -10 -6 -16q-33 -38 -76 -97q-56 -80 -85 -166q-10 -31 -14 -53v-4q0 -7 4.5 -11.5t11.5 -5.5q7 0 8 6q2 8 4 14l10 26
q23 54 54 105q39 64 97 130l4 4q2 2 4 -1q4 -12 5 -18q24 -81 60 -143q23 -38 53 -60q8 -5 22 -17q29 -24 37 -29q7 -6 18 -9l4 -1q6 0 13 4t9 9q3 7 -3 8t-13 8q-10 10 -19 22q-18 22 -24 35q-57 121 -88 261v5q0 9 7 15q26 24 80 70q103 83 196 130q2 1 11.5 6t20.5 5
q7 0 10 7l1 3q0 3 -5 8q-12 12 -29 9q-37 -5 -68 -20q-7 -4 -16 -9t-19 -11q-91 -55 -173 -125l-26 -22q-3 3 -3 7z" />
    <glyph glyph-name="Y" unicode="Y" horiz-adv-x="444" 
d="M408.5 508.5l0.5 -0.5q-3 -8 -4 -10q-14 -35 -46 -105q-56 -122 -81 -171q-30 -56 -54 -86q-40 -50 -96 -77q-20 -11 -42 -8q-16 2 -23 4q-46 11 -55 55q-3 12 -16 14l-5 1q-7 0 -7 -11l1 -5q4 -27 27 -47q21 -18 64 -31q30 -9 58 -9q46 0 87 22q43 24 73 54q32 31 66 90
q24 44 51 103l48 112q23 59 47 141q13 45 12 73q0 18 -18 28q-5 3 -9 3q-5 0 -11 -4q-4 -2 -11 -12l-16 -32q-1 -2 -4.5 -8.5t-9.5 -10.5q-2 -1 -9 -10q-56 -63 -111 -123q-26 -28 -52 -58l-53 -58q-59 -61 -83 -82q-18 -15 -26 -21q-4 -4 -6 -2q-1 3 -0.5 5t0.5 3
q3 19 9 35q28 86 90 199q23 41 63 105q14 21 23 41q3 6 3 11q0 7 -7 13q-8 8 -17 11q-4 2 -11 2q-9 0 -15 -5l-11 -9q-27 -25 -44 -49q-49 -60 -81 -119q-44 -84 -59 -142q-9 -38 -9 -63q0 -46 26 -68q20 -17 38 -17q13 0 32 12l22 18q24 23 48 50.5t29 33.5l16 19l60 71
l79 92l29 33z" />
    <glyph glyph-name="Z" unicode="Z" horiz-adv-x="527" 
d="M37 90q22 29 43 55q28 35 62 71t41 43q75 78 139 137l27 24q56 48 59 50l31 25q31 23 62 50q21 19 32 35q4 7 4 15q0 5 -1 8q-5 18 -22 22q-5 1 -9.5 2t-9.5 2q-15 5 -35 5q-9 0 -27 -2q-38 -5 -89 -19q-77 -23 -137 -60q-27 -18 -40 -36q-7 -10 -7 -20q1 -16 13 -29
q8 -8 11 -8q4 0 11 5q35 27 95 52q52 25 146 47q1 0 2 0.5t2 -0.5q0 -1 -5 -6q-121 -95 -195 -165q-73 -69 -114 -116q-56 -63 -127 -176q-11 -19 -18 -37q-1 -3 -1 -9q0 -8 2 -12q2 -2 2 -6q3 -22 20 -36q12 -12 29 -9l18 5q100 38 206 44q12 1 37 1q32 0 59 -4
q48 -8 73 -16q34 -11 44 -14l5 -1q7 0 10 10q1 3 1 8q0 16 -13 26l-13 9l-45 23q-7 4 -16 8.5l-21 10.5q-28 12 -58 16t-68 4q-24 0 -72 -4q-80 -10 -143 -33l-1.5 -0.5t-2.5 0.5z" />
    <glyph glyph-name="a" unicode="a" horiz-adv-x="364" 
d="M170 116q-6 -18 -6 -40q0 -19 11 -34t30 -21q8 -2 13 -2q7 0 14 3q14 5 28 19q30 28 64 73l63 85l24 33q4 8 1 11q-2 3 -6.5 3.5t-7.5 -1.5l-7 -7q-14 -19 -44 -53l-25 -31q-25 -33 -43 -53q-21 -24 -49 -44q-4 -3 -14 -7q-6 -3 -5 4l3 10q11 44 47 102q14 23 44 69
q8 11 11 23v3q0 6 -2 12t-6 7q-10 5 -18 2q-2 0 -13 -6q-4 -2 -5 -1.5t-3 4.5q-12 28 -37 46q-21 16 -42 16q-46 0 -85 -27q-32 -21 -62 -54q-45 -50 -66 -100q-17 -39 -17 -75q0 -49 44 -69q12 -4 16 -4q6 0 16 4q18 10 27 18l12 9q39 25 86 72q2 1 4 3.5t6 4.5q1 -3 -1 -7
zM15 79q18 52 56 105q20 27 37 45q39 40 79 56q15 6 33 4q11 -2 15 -11t4 -20q0 -5 -2 -17l-6 -9l-110 -100q-51 -44 -63 -53q-19 -16 -43 -25q-4 -2 -6 -1q0 8 6 26z" />
    <glyph glyph-name="b" unicode="b" horiz-adv-x="354" 
d="M108.5 264q1.5 3 1.5 4q24 42 37 63q62 100 120 181q9 12 15 24q3 6 3 10q0 8 -11 13q-4 2 -7 2q-4 0 -10 -4q-13 -9 -28 -24q-18 -17 -50 -59q-72 -91 -122 -180q-44 -80 -62 -123q-23 -52 -30 -75q-5 -12 -5 -31q0 -15 2 -22q3 -14 18 -19q3 -1 8 -1q7 0 10 11
q1 3 2 6.5t2 6.5q11 18 23 46q9 19 24 41q18 25 62 75q50 56 110 94q24 15 52 21q5 1 6 0t0 -6q-3 -11 -8 -25q-6 -12 -27 -53q-4 -7 -11 -10q-45 -16 -78 -41q-44 -32 -70 -66q-10 -14 -16 -31q-3 -7 -3 -15q0 -14 10 -25q24 -27 55 -27q16 0 31 7q43 19 73 57
q40 50 73 120q4 11 15 14q7 2 29.5 9t43.5 8q3 0 5.5 2.5t2.5 4.5q1 4 -6 6q-9 4 -21 4q-20 1 -44 -2q-5 0 -6 1t0 6l2 7q3 19 2 35q-5 27 -34 49q-13 10 -30 10q-8 0 -17 -3q-24 -6 -42 -19q-40 -23 -80 -62l-21 -21q0 3 1.5 6zM123 83q0 4 4 12q16 25 43 49l18 15q3 3 6 3
q-31 -48 -71 -79z" />
    <glyph glyph-name="c" unicode="c" horiz-adv-x="308" 
d="M71 11q12 5 24 12q49 28 94 67q34 28 107 93q12 10 53 48q6 6 8 10l1 3q0 4 -3 6t-7 1q-6 -2 -9 -4l-26 -22l-25 -20q-12 -8 -22 -16q-80 -63 -137 -98q-35 -23 -73 -39q-18 -6 -29 -7h-4q-4 0 -4 8q0 9 1 14q5 42 30 88q46 88 114 135q24 17 42 20q14 4 22 2q6 -1 6 -3
q0 -12 -6 -21q-12 -26 -25 -44q-5 -6 3 -9q2 -1 6 -1q6 0 10 4q19 15 36 50q4 7 4 15q0 11 -7 19q-30 40 -82 40q-24 -1 -48 -14q-53 -28 -89 -71q-49 -56 -67 -115q-9 -34 -9 -58q0 -52 35 -80q22 -19 47 -19q14 0 29 6z" />
    <glyph glyph-name="d" unicode="d" horiz-adv-x="382" 
d="M223 295q0 1 -1 2q-15 31 -51 42q-6 2 -20 2q-20 -3 -43 -15q-34 -20 -69 -62t-59 -101q-16 -40 -20 -76v-8q0 -16 4 -27q5 -16 20 -27t34 -11q13 0 23 6q8 4 18 12q16 12 29.5 28.5t15.5 19.5q42 52 61 80q5 8 8 9q1 -1 0.5 -3l-0.5 -2q-6 -23 -6 -25q-4 -15 -4 -33
q0 -43 29 -65q17 -11 34 -11q13 0 23.5 4.5t25.5 13.5q30 19 59 48q42 40 80 93q5 7 13.5 19.5t13.5 22.5l2 8q0 4 -6 8t-10 5q-6 1 -10 -3l-11 -12q-21 -27 -65 -81q-25 -29 -60 -64q-18 -17 -39 -30q-7 -5 -19 -8q-6 -1 -7 4q-3 12 -2 21q1 12 9 36q23 75 73 176
q27 56 87 152q44 70 62 107q5 8 6 15l1 4q0 7 -6 10q-5 5 -12 5t-13 -5l-9 -8q-10 -10 -26 -30q-91 -114 -155 -240q-1 -1 -2 -4t-4 -4q-2 1 -2 2zM16 56q27 107 84 176q27 33 59 54q8 5 19 10l6 2q4 0 7 -8q8 -28 7 -52q0 -5 -4 -11q-25 -25 -71 -77l-43 -48
q-29 -31 -51 -48q-3 -2 -6 -4.5t-8 -4.5q-1 5 1 11z" />
    <glyph glyph-name="e" unicode="e" horiz-adv-x="332" 
d="M181 181q62 29 98 95q8 16 8 32q0 9 -3 19q-5 13 -18 26q-19 24 -49 24q-5 0 -15 -2q-35 -7 -73 -30q-71 -42 -123 -117q-26 -37 -37 -74q-11 -33 -8 -64q5 -50 69 -81q20 -9 36 -9q22 0 61 13q50 20 96 55q41 30 66 54.5t67 71.5q14 16 19 25q6 8 7 15v2q0 6 -7 10
q-1 1 -4 1t-7 -5q-11 -15 -28 -32q-14 -14 -25 -22l-20 -18q-61 -54 -121 -87q-47 -27 -89 -36q-8 -2 -20 -3t-21 -1q-25 0 -25 13q0 20 4 35q14 46 52 100q2 3 3.5 3t4.5 -2q20 -23 54 -21q26 -2 48 10zM100 195q-4 0 -8.5 4t-6.5 6t1 5l15 18q51 56 112 84q12 6 24 9
q5 2 6.5 0.5t-0.5 -7.5q-9 -31 -33 -59q-23 -26 -56 -45q-20 -12 -53 -15h-1z" />
    <glyph glyph-name="f" unicode="f" horiz-adv-x="271" 
d="M47.5 45q-0.5 6 0.5 14q0 7 1 8t7 -1q1 -1 3 -1q17 -6 33 -6q12 0 29 5q42 13 85 49q33 28 68 64q26 28 37 44l9 14q2 6 -1 9q-3 5 -9 5q-5 0 -10 -5q-4 -4 -8 -8.5t-9 -9.5q-35 -35 -86 -79q-43 -36 -95 -57l-12 -4l-16 -2q-6 0 -10 3.5t-11 12.5q-5 9 -12 13t-7.5 5.5
t2.5 8.5l1 3q61 125 123 221q29 46 93 136l34 49l13 20q5 6 0 12q-8 10 -22 10q-6 0 -12 -3q-8 -6 -12 -10q-24 -22 -68 -74q-35 -43 -70 -96q-56 -83 -109 -180q-60 -111 -100 -216q-22 -59 -30 -96q-7 -35 -7 -62q0 -43 31 -55q10 -4 21 -6q24 -3 40 13q11 10 22 26
q30 48 46 95q18 50 18 121q0 4 -0.5 10zM-64 -159q-2 2 -1.5 4.5t0.5 3.5q13 61 36 122q17 45 42 104l2 4l0.5 -0.5l0.5 -0.5q0 -119 -80 -237z" />
    <glyph glyph-name="g" unicode="g" horiz-adv-x="359" 
d="M257 166q3 3 3 6q24 61 43 99q4 7 21 44q2 4 2 9q0 6 -5 11q-10 8 -25 10q-15 0 -30 -15q-8 -10 -11 -15q-3 -4 -6 -1l-5 3q-22 19 -45 26q-19 7 -33 7q-20 0 -40 -12q-30 -18 -47 -36q-40 -40 -68 -93q-42 -75 -47 -143q-1 -24 7 -45q5 -12 16.5 -19.5t25.5 -7.5
q16 0 27 11q20 17 35 33q45 59 68 92l32 46l16 23q2 3 6 6q-19 -46 -45 -127q-2 -6 -6 -9q-19 -24 -41 -44q-69 -77 -110 -154q-22 -37 -30 -71q-5 -17 -5 -32q0 -34 30 -44q11 -3 21 -3q20 0 39 12q23 14 42 38q15 18 26.5 37.5t28.5 52.5q13 28 41 106l39 116q3 8 12 17
l22 17q25 21 44 34q39 27 64.5 41.5t55.5 19.5q4 2 4 4q1 1 0 3t-3 3q-7 4 -16 4q-45 -2 -85 -23q-26 -13 -61 -37q-1 0 -2.5 -1.5t-3.5 -0.5zM12 35l1 8q8 44 25 81q37 80 98 141q16 16 45 34q6 2 10 4q6 2 8 2q5 0 12 -5q13 -13 18 -16q3 -3 1 -6l-2 -2q-39 -46 -37 -43
q-12 -13 -25.5 -29t-30.5 -34q-25 -29 -73 -89q-26 -34 -41 -49q-1 -1 -2.5 -3.5t-5.5 -2.5zM117.5 -27.5q-0.5 -0.5 -0.5 -1.5q-3 -9 -15.5 -47.5t-26.5 -70.5q-17 -40 -35 -64q-13 -20 -29 -33l-4 -4q-7 -4 -7 3q-1 3 -1 9q0 7 1 10q9 39 27 73q26 51 85 123q2 4 5 4
q1 -1 0.5 -1.5z" />
    <glyph glyph-name="h" unicode="h" horiz-adv-x="348" 
d="M242 316l-24 -46q-14 -28 -22 -42q-4 -8 -10 -19t-12 -24q-23 -49 -29 -88q-2 -14 -2 -21q0 -12 3 -26q4 -15 12 -22q15 -16 41 -16q19 0 33 10q11 7 22 18q31 31 64 74q27 37 79 111q5 6 18 26q4 6 2 9q-4 4 -10 3q-4 0 -8 -4l-8 -8l-20 -23l-30 -34l-25 -27
q-46 -53 -87 -91l-15 -14q-2 -2 -5 -1q0 5 2 11q9 35 34 94q28 59 52 122q9 19 10 35q3 22 -14 33q-14 9 -28 9q-12 0 -23 -7q-58 -36 -88 -70q-46 -53 -79 -95q-5 -4 -6 -5l3 6q39 72 70 121q40 63 88 133l15 22q38 54 54 82q1 2 4 6.5t4 8.5q1 2 1 5q0 5 -4 9q-8 8 -19 8
q-10 0 -16 -5q-13 -9 -27 -25l-52 -65q-68 -85 -119 -169q-39 -67 -65 -118q-30 -58 -46 -108q-6 -20 -8 -42.5t-2 -27.5v-1q0 -9 8 -14t16 -2q18 7 24 19l8 13q37 56 51 76q53 73 109 135q40 42 64 58q9 6 14 8z" />
    <glyph glyph-name="i" unicode="i" horiz-adv-x="181" 
d="M143 413q4 -10 16 -17.5t22 -6.5q5 0 10 3q11 11 11 24q0 12 -6 22.5t-18 16.5q-3 3 -8 3q-4 0 -7 -5q-1 -1 -3 -1q-9 -3 -13 -10.5t-6 -18.5zM58 34q27 22 64 67q36 44 68 86l34 43l6 8q3 6 -2 9q-3 3 -7 3q-3 0 -7 -4q-15 -14 -43 -46q-42 -50 -105 -111
q-20 -19 -39 -32q-1 -1 -3 -2.5t-4 -1.5q-4 0 -3 4.5t1 5.5l2 7q10 35 29 76q24 52 84 150q2 4 6 10.5t5 12.5q1 1 1 4q0 4 -3 8q-9 11 -24 11q-9 0 -16 -4q-20 -14 -35 -32q-46 -54 -80 -129q-16 -36 -21 -55q-6 -26 -6 -38q0 -25 18.5 -45t42.5 -20q18 0 37 15z" />
    <glyph glyph-name="j" unicode="j" horiz-adv-x="137" 
d="M62.5 408q9.5 -9 22.5 -11l6 -1q8 0 12 10q5 8 5 16q0 9 -7 18q-5 9 -3 14v3q0 8 -5 10q-6 6 -17 10h-3q-9 0 -12 -6q-14 -21 -11 -40q3 -14 12.5 -23zM62 199q2 2 4 12q13 43 24 87q1 5 2.5 16t0.5 18q2 8 -1 10q-4 12 -16 15q-2 1 -5 1q-5 0 -11 -8q-6 -6 -11 -18
q-6 -10 -10.5 -23t-6.5 -18q-29 -74 -61 -161q-5 -11 -12 -17q-44 -42 -64 -66q-60 -66 -106 -144q-26 -47 -41 -91q-12 -38 -11 -59q0 -23 19 -34q12 -9 27 -12q4 -1 12 -1q19 0 38 11q24 14 48 45q26 32 47 82q40 93 75 186l37 103q1 8 11 16q6 5 17 14t20 14l27 18
q23 16 39 25.5t34 16.5q3 1 3 3t-2 4q-4 7 -13 5q-7 -2 -19 -4q-43 -15 -82 -41l-11 -7zM-78 5l-14 -37q-33 -87 -46 -115q-21 -45 -41 -74q-13 -17 -32 -33q-2 0 -3.5 -1t-2.5 -2q-2 -1 -3.5 -0.5t-0.5 2.5v13q3 24 13 54q15 41 42 89q37 60 94 127q1 3 3 3q1 0 1 -1z" />
    <glyph glyph-name="k" unicode="k" horiz-adv-x="336" 
d="M34 126q16 -50 50 -81q25 -22 50 -27q11 -3 22 -3q23 0 45 11q29 14 65 51q31 33 61 75q36 48 53 76q4 6 5 10l1 4q0 7 -6 11q-5 2 -8 -1l-4 -5l-36 -45q-50 -60 -80 -86q-33 -30 -66 -45q-29 -14 -56 -13q-27 0 -39 22q-11 21 -12 25q-4 8 -8.5 19.5t-7.5 17.5
q-2 5 -1.5 6t5.5 2l33 8q65 17 116 55q45 34 77 70q8 8 20 26q6 9 9 20l1 5q0 8 -7 17q-8 8 -12 8q-5 0 -12 -7l-17 -18q-60 -63 -140 -113q-38 -22 -59 -31l-13 -5q-4 0 -3 4l6 12q44 78 75 127q44 71 105 161q30 44 44 67q11 16 18 31q1 3 1 8q0 10 -8 15t-15 5
q-8 0 -17 -7q-6 -5 -16 -17q-26 -33 -76 -103q-90 -128 -137 -208q-58 -96 -91 -169q-9 -21 -14 -38t-5 -35q0 -13 3 -19t13 -9q2 -1 5 -1q4 0 9 6q7 12 10 15q4 4 16 21q9 16 40 75q4 7 4 9q2 -1 4 -9z" />
    <glyph glyph-name="l" unicode="l" horiz-adv-x="166" 
d="M-44 -2q5 -14 18.5 -25t29.5 -11q15 0 29 10q17 12 36 29q31 30 67 80q11 15 31 45q17 29 30 45q10 13 43 65l3 6q2 3 -3 5q-1 1 -6 1q-11 0 -14 -5t-9.5 -13t-9.5 -15q-5 -9 -13 -21q-31 -41 -101 -126q-23 -28 -41 -45q-24 -22 -39 -31q-1 0 -4 -2.5t-6 -0.5q-3 0 -3 4
q0 21 11 54q13 43 48 115q29 59 74 131q62 98 107 160l98 132l21 31q3 5 3 9q0 5 -3 8q-12 14 -23 14q-7 0 -15 -6q-5 -3 -21 -19q-38 -38 -104 -122q-57 -76 -119 -176q-42 -70 -81 -149q-19 -42 -28 -73q-11 -41 -12 -70q2 -18 6 -34z" />
    <glyph glyph-name="m" unicode="m" horiz-adv-x="516" 
d="M62 193l15 23q31 44 76 101q5 7 18 28q2 3 2 9q0 7 -6 13q-5 5 -7 6q-6 5 -15 5q-8 0 -13 -4l-20 -16q-23 -22 -54 -62q-44 -59 -85 -145q-25 -51 -32 -105l-1 -6q0 -10 6.5 -16t16.5 -4h4h2q4 0 7 5q6 12 15.5 25.5t13.5 19.5q39 60 97 124q56 61 100 98q32 29 57 44
q4 2 7 2l-24 -36l-12 -18q-5 -7 -24 -33.5t-32 -50.5q-28 -54 -38 -83q-6 -18 -6 -37q0 -14 6 -44q3 -12 16 -17q3 -1 6 0q11 8 15 13l13 20q20 31 39 56q37 46 73 88q56 67 115 115l17 13v-2l-6 -8q-59 -76 -94 -155q-19 -47 -18 -90q0 -21 11 -38q8 -12 20.5 -21.5
t27.5 -9.5t30 12q23 19 38 37q83 98 120 173l6 13q1 1 1 3q0 6 -6 7l-3 1q-2 0 -7 -5q-15 -15 -37 -47q-12 -18 -22 -30q-20 -26 -47 -54t-53 -54l-4 -2q-6 0 -6 16q0 6 6 24q18 44 55 112q30 56 42 85q10 23 10 41q0 23 -21 36q-8 5 -15 5q-10 0 -23 -9l-2 -1
q-46 -30 -95 -77l-51 -52q-1 -1 -2.5 -3t-5.5 -3q4 7 21 38q18 35 22 58l1 10q0 23 -20 38q-10 7 -19 7q-6 0 -13 -3q-27 -13 -52 -33q-7 -5 -43 -36q-53 -47 -99 -99l-14 -16z" />
    <glyph glyph-name="n" unicode="n" horiz-adv-x="349" 
d="M53.5 176q0.5 1 0.5 2q18 27 58 79l18 23l31 41q5 8 5 12q0 6 -9 13q-7 6 -15 6q-6 0 -12 -3q-4 -1 -7 -4q-23 -18 -37 -33q-25 -26 -55 -63q-59 -74 -93 -146q-21 -44 -18 -82q2 -19 20 -25h4q6 0 12 3.5t10 9.5q21 35 65 88q20 25 49 56l15 18q21 27 51 58q18 19 43 41
l21 20q14 13 39 29q4 4 9 4q1 -3 -1 -5q-5 -14 -11 -24l-37 -60q-38 -61 -57 -112q-16 -43 -16 -74q0 -34 33 -48q10 -5 18 -5q13 0 23 9q20 16 34 32q50 54 86 109q5 8 25 38.5t40 55.5l3 3q3 5 -2 8q-6 5 -11 1q-4 -2 -6.5 -4.5l-4.5 -4.5l-33 -37l-23 -26l-36 -43
l-20 -25q-38 -44 -62 -62q-3 -3 -5 -2q0 3 1 4.5t2 3.5q15 43 51 110q33 63 43 83q14 34 14 54q0 31 -27 49q-12 7 -21 7q-5 0 -13 -3q-5 -2 -15 -8q-26 -16 -48 -38l-20 -20q-67 -65 -109 -116q0 2 0.5 3z" />
    <glyph glyph-name="o" unicode="o" horiz-adv-x="314" 
d="M235.5 167.5q1.5 2.5 1.5 3.5q12 24 17 36q9 25 10 43v7q0 16 -10 23q-8 5 -26 26l-3 3q-37 28 -76 28q-21 0 -41 -7q-32 -11 -61 -44q-54 -64 -78 -144q-9 -36 -9 -59q0 -35 18 -56q12 -14 32 -23t42 -9q26 0 46 13q21 13 40 30q46 46 73 86q3 6 10 6q3 -1 10 -1
q12 0 25 5q36 12 66 45l18 20q4 5 11 13t11 14q2 6 2 7q0 4 -7 7q-2 1 -6 1t-9 -3q-12 -8 -17 -13q-49 -38 -56 -43q-4 -3 -14 -9.5t-20 -10.5q-1 3 0.5 5.5zM47 170q25 58 69 99q20 19 44 27q9 3 19 3q5 0 7 -1q5 -3 8 -9l1 -2q0 -2 -3 -4t-4 -3q-37 -42 -37 -89
q0 -23 15 -39q4 -4 4 -5t-3 -6q-37 -53 -80 -89q-19 -18 -40 -26l-8 -2q-7 0 -11 10q-5 10 -5 33q1 50 24 103zM213.5 238.5q-0.5 -3.5 2.5 -5.5q2 -1 -1 -4q-9 -25 -19 -40q1 29 18 55q0 -2 -0.5 -5.5z" />
    <glyph glyph-name="p" unicode="p" horiz-adv-x="353" 
d="M100 277q12 18 17 28q8 12 9 26q0 7 -3 9q-4 2 -11 -1q-17 -9 -39 -31q-26 -27 -57 -67q-48 -62 -92 -135q-61 -98 -99 -184q-27 -61 -39 -98q-11 -30 -16 -76v-3q0 -10 11 -14l6 -1l5 -1q6 0 11 9q6 14 10 20q16 25 40 77l16 34q30 68 63 132q6 12 10 18q17 27 38 56
q41 56 84 104q49 53 110 99q33 24 72 39q18 7 31 7q6 0 8 -2t2 -7q2 -23 -7 -42l-10 -21q-4 -6 -11 -9q-26 -6 -47 -18q-68 -37 -119 -93q-19 -22 -31 -46q-11 -22 -11 -43q0 -16 14.5 -30.5t32.5 -14.5q6 0 9 1q9 1 20 6q44 19 77 58q69 75 100 154q2 7 8 7q22 2 35 2
q6 0 21.5 -1t28.5 -3h2q2 0 3 2t0 6q-5 9 -14 11q-33 10 -61 10q-10 0 -12 1.5t-1.5 9t0.5 13.5q0 51 -37 75q-14 8 -22 8q-4 0 -10 -2q-5 -2 -15 -5t-17 -7q-46 -20 -84 -49q-22 -16 -33 -25q0 3 4 7zM234 197q-49 -63 -83 -101q-31 -33 -62 -53l-2.5 -3t-5.5 0q-2 2 0 9
q6 23 26 50q28 39 76 72q26 19 44 27q2 1 3.5 2t4.5 1q1 -2 -1 -4z" />
    <glyph glyph-name="q" unicode="q" horiz-adv-x="291" 
d="M232 289q-8 27 -37 45q-14 10 -31 10q-8 0 -17 -3q-11 -3 -25 -11q-27 -16 -55 -45q-32 -33 -55 -71q-29 -45 -44 -93q-9 -33 -7 -55q2 -38 34 -57q8 -4 18 -4q12 0 19 5q6 4 17 15q14 13 30 32t22 27q2 4 5 5l-2 -4l-27 -52q-23 -45 -56 -120l-14 -31q-14 -29 -25 -63.5
t-14 -42.5l-3 -9v-4q0 -8 9 -12q3 -2 9 -2q5 0 10 6q7 13 38 60q15 22 34 60q4 6 10 18l27 51q9 17 25 48.5t29 53.5q43 79 80 134l52 80q13 17 20 35q3 6 3 10q0 5 -4 9q-9 12 -21 12q-9 0 -19 -8l-26 -28q-2 -5 -5 -6q-2 1 -4 5zM12 95q32 97 103 168q23 21 47 34
q10 5 24 8h4q3 0 4.5 -1.5t2.5 -4.5q8 -23 11 -42q0 -6 -4 -10q-21 -21 -31 -33l-16 -17l-109 -120q-17 -19 -36 -36q-6 -6 -8 -4q-2 1 -2 4.5v4.5v2q1 21 10 47z" />
    <glyph glyph-name="r" unicode="r" horiz-adv-x="295" 
d="M147 227q0 -3 -4 -9l-46 -84q-17 -34 -22 -62q-1 -5 -1 -15q0 -39 36 -56q8 -4 17 -4q8 0 12 2q14 5 24 13q20 16 29 25l34 36q59 61 95 112q8 11 22 33q2 3 2 6q0 4 -4 8q-7 5 -10 5q-4 0 -9 -5q-21 -19 -40 -40q-26 -30 -42 -45l-82 -81q-16 -14 -25 -20q-2 -4 -5 -3
q-2 2 -0.5 3.5t1.5 2.5q11 32 29 65l29 58q6 15 9 26q3 9 3 17t-3 15q-6 16 -22.5 29.5t-37.5 13.5h-7q-10 0 -28 -2q-2 0 -8 -1.5t-12 -0.5l17 23q26 38 36 60q5 13 5 22q0 19 -16 34q-14 12 -27 12q-6 0 -13 -3q-6 -2 -9 -4q-33 -14 -65 -51q-16 -18 -26 -45
q-3 -10 -3 -21q0 -12 4 -21q7 -21 25 -36q24 -21 59 -21q9 0 14 1q13 1 39 7q24 3 26 3v-2zM93.5 360.5q-1.5 -2.5 -1.5 -3.5q-5 -15 -12 -26q-24 -42 -35 -63q0 -1 -2 -3.5t-6 -2.5h-3q-4 0 -10 2q-2 1 -2 6q1 4 5 17q19 45 61 76q2 2 5 2h1q1 -2 -0.5 -4.5z" />
    <glyph glyph-name="s" unicode="s" horiz-adv-x="236" 
d="M21 1q12 0 18 1q36 7 54 26q21 21 33 58q3 14 3 26q-2 20 -7 35q-2 7 4 9l22 12q55 28 110 34q7 1 22 1q4 0 5 2q2 2 0.5 3.5t-1.5 2.5q-3 5 -13 9q-16 5 -40 5q-35 0 -73 -15q-28 -10 -47 -22q-5 -3 -7 -2.5t-4 5.5q-8 13 -11 31q-3 27 14 46q22 24 56 33l14 2
q10 1 7 10q-1 6 -7 12q-25 27 -53 27q-11 0 -26 -5q-18 -5 -38 -19q-21 -15 -27 -41q-2 -12 -2 -18q0 -16 6 -31q8 -22 19 -40l17 -27q2 -5 2 -6.5t-5 -5.5l-25 -20q-17 -14 -16 -13q-31 -29 -44 -45q-15 -19 -18 -27q-3 -7 -3 -15q0 -13 11 -23q16 -15 45 -15h5zM71 113
q-10 -29 -23 -47q-16 -24 -54 -34q-2 3 0 5.5t2 3.5q12 20 29 35q6 7 39 37q3 4 8 5q1 -3 -1 -5z" />
    <glyph glyph-name="t" unicode="t" horiz-adv-x="214" 
d="M168 452q-40 -53 -86 -124q-51 -78 -77 -135q-24 -53 -30 -85q-7 -28 -7 -50q0 -32 18 -54q25 -25 50 -25q13 0 29 8q10 5 26 19q60 56 101 121q9 13 25 41l38 60l3 6q2 5 -3 6h-5q-9 0 -15 -7q-14 -18 -48 -59q-29 -35 -31 -37q-36 -47 -62 -74q-24 -26 -48 -43
q-8 -7 -22 -12q-3 -1 -4.5 -0.5t-2.5 4.5q-3 13 -2 23q3 39 19 81q17 49 49 106q63 109 150 235q6 7 14 7h57q31 0 46 1h12q19 0 28 -1q24 -2 36 -2t17 8q3 6 -3 10q-3 2 -11 4l-55 13q-50 10 -93 11q-1 0 -4 -0.5t-4 1.5v1q0 2 1.5 4t2.5 3l35 49q8 12 13 21q1 2 1 5t-5 8
q-7 5 -13 5q-5 0 -11 -3q-4 -2 -20 -16q-15 -13 -31 -32t-30 -37q-6 -8 -16 -8q-37 0 -82 -5q-71 -6 -142 -26q-40 -11 -60 -22q-12 -7 -19 -17q-5 -5 -7 -16v-2q0 -7 8 -7q5 0 8 1l41 9q72 15 98 20q59 10 104 14l22 2q0 -2 -3 -8z" />
    <glyph glyph-name="u" unicode="u" horiz-adv-x="333" 
d="M157 73q0 4 4 16q11 28 36 69l42 66l21 33q17 26 26 46q2 4 2 10q0 11 -10 20q-8 6 -14 6q-7 0 -15 -5q-9 -7 -16 -16q-44 -52 -79 -107q-4 -6 -7 -8q-32 -30 -73 -79l-18 -19q-23 -23 -27 -28q-25 -27 -39 -38q-1 -1 -2.5 -2t-3.5 0q0 2 2 6q7 22 22 56q23 48 74 121
l60 84q3 4 4.5 7.5t3.5 6.5q3 6 3 11q0 7 -7 14l-8 8q-7 5 -11 5t-11 -5q-12 -9 -25 -24q-14 -16 -40 -50q-53 -68 -84 -130q-22 -47 -27 -86q-2 -16 6.5 -31.5t23.5 -23.5q7 -3 13 -3q8 0 16 6q5 3 13 11q18 16 48 52l25 28q19 21 26 27q-4 -11 -8 -35q-2 -18 13.5 -38
t36.5 -34q12 -7 20 -7t16 5q17 9 30 21q52 45 109 116l26 33l18 24l9 12q4 6 -1 10q-5 5 -12 1l-7 -5q-29 -25 -52 -49q-6 -6 -43 -41q-15 -12 -27 -24q-15 -14 -57 -46q-5 -4 -13 -6t-11 3q-1 2 -1 6z" />
    <glyph glyph-name="v" unicode="v" horiz-adv-x="332" 
d="M14 53v6q0 10 1 15q9 51 33 110q24 56 54 108l13 27q3 8 -2 13q-7 10 -20 10q-10 0 -17 -7l-5 -5q-13 -14 -25 -31q-39 -53 -63 -116q-20 -49 -23 -91v-10q0 -14 3 -29q4 -18 20.5 -29.5t35.5 -11.5q14 0 24 6q15 10 17 12q23 17 49 46q37 40 79 99q4 5 5.5 5.5t5.5 -3.5
q19 -13 39 -17q12 -3 22 -3q8 0 12 1q23 4 41 22q7 7 31 25l30 25l6 6q4 6 -2 9q-6 5 -13 1q-4 -1 -17 -9q-56 -37 -81 -46q-16 -6 -23 -7h-4q-15 0 -20 10q-5 8 -5 15t4 12q39 57 79 126q25 46 36 75q1 4 6 16.5t7 23.5l1 6q0 13 -11 22q-7 6 -17 10q-6 2 -10 2
q-5 0 -15 -4q-15 -10 -17 -12q-27 -23 -49 -54q-48 -69 -60 -138q-4 -26 -4 -39q0 -18 4 -33v-2q0 -5 -4 -9q-34 -46 -52 -68q-35 -45 -73 -77q-4 -3 -11 -9t-13 -9q-2 2 -2 5zM308 461q3 -3 1 -7q-9 -29 -30 -66q-22 -40 -58 -95l-1 -2h-2q28 102 90 170z" />
    <glyph glyph-name="w" unicode="w" horiz-adv-x="466" 
d="M150 132q-2 -20 -2 -29q3 -44 36 -63q14 -9 27 -9t26 9q16 12 32 28q24 26 51 59q3 3 34 43q3 5 8 1l12 -9q19 -13 39 -13t42 13q14 9 31 26q9 7 13 15q4 9 14 25q3 5 3 7q0 5 -6 9q-4 3 -8 3q-2 0 -8 -2l-10 -8q-2 -1 -26 -20q2 2 -26 -20q-18 -13 -42 -14q-9 0 -14 5
q-3 3 -3 5t2 5q2 5 5 8q54 78 88 154q11 24 16 53q1 16 -5 29.5t-19 21.5q-8 5 -16 5q-4 0 -10 -2t-18 -10q-19 -13 -35 -34q-43 -56 -58 -120q-5 -23 -5 -42q0 -28 10 -48q2 -6 -2 -10l-9 -11q-25 -32 -59 -66q-22 -24 -41 -40q-9 -7 -12 -8q-1 3 -0.5 4.5t0.5 2.5
q5 25 7 34q16 62 50 138q4 9 7.5 16t5.5 12q3 6 3 11q0 7 -8 15l-4 4q-5 5 -12 5t-12 -5q-13 -11 -20 -24q-24 -37 -35 -60q-8 -16 -17 -25l-18 -20q-26 -30 -40 -44q-42 -46 -65 -67q-18 -16 -28 -21q-2 -2 -4 -1t-1.5 2.5l0.5 1.5q1 10 5 23q17 51 47 103q27 48 85 130
q18 25 21 32q4 7 4 13q0 8 -10 15q-4 4 -6 5q-5 3 -10 3q-4 0 -10 -3q-14 -7 -26 -19q-59 -59 -106 -136q-25 -42 -40 -87q-9 -33 -8 -56q4 -40 43 -61q9 -5 20 -5q13 0 24 8q17 11 33 29q18 20 65 80q1 1 2 3t3 3q3 -2 0 -5zM366 269q12 68 41 113q15 26 32 41q7 7 12 9
q2 -3 1.5 -6t-0.5 -4q-5 -22 -19 -52q-21 -46 -67 -112l-2 -1q0 4 2 12z" />
    <glyph glyph-name="x" unicode="x" horiz-adv-x="272" 
d="M75 237q1 9 4 30t4 37v8q0 18 -7 27q-5 8 -12 8q-6 0 -12 -9q-4 -6 -10 -20q-9 -21 -16 -54q-14 -53 -13 -91q0 -11 -7 -18q-19 -22 -30 -41q-16 -27 -33 -73q-3 -6 -3 -11q0 -8 7 -17q6 -6 11 1l2 4q5 7 15 22t19 26q16 20 25 30q2 3 3.5 2.5t2.5 -3.5l2 -4
q9 -28 26 -49q17 -24 43 -35q12 -5 21 -5q16 0 29 9q11 7 31 25q31 29 63 80l33 51q31 47 33 50l15 24q3 7 -4 8h-6q-7 0 -11 -6l-20 -28q-35 -40 -60 -71q-36 -46 -57 -64q-20 -20 -47 -36q-6 -5 -15 -6l-4 -1q-4 0 -7 6q-8 13 -10 23q-9 30 -11 78q0 9 5 13l28 27
q63 56 134 100q12 8 18 11q25 17 28 19q11 8 8 21q0 3 -2 7q-5 14 -15 14q-4 0 -10 -3q-15 -6 -31 -15q-63 -34 -122 -84l-16 -14q-18 -15 -19 -16q-2 5 0 13z" />
    <glyph glyph-name="y" unicode="y" horiz-adv-x="378" 
d="M149 130.5q-1 -1.5 -2 -3.5l-20 -50q-1 -3 -8 -12l-33 -31q-66 -68 -97 -103q-48 -54 -75 -104q-1 -3 -10 -19.5t-12 -33.5q-2 -10 -2 -14q0 -18 15 -33q20 -17 42 -17q10 0 25 5q11 4 26 13q50 32 88 92q22 36 48 97q26 65 55 152q5 16 19 28q53 43 118 86q42 29 97 52
q5 2 5.5 4.5t-3.5 5.5q-2 3 -9 3t-15 -3q-32 -11 -41 -14q-45 -17 -79 -37q-28 -19 -52 -37q-1 -1 -3 -2.5t-4 -1.5l1 4q27 65 80 144l13 18q4 6 3 11q-1 8 -10 13.5t-17 2.5q-10 -6 -15 -10q-24 -21 -44 -49q-4 -5 -18 -25.5t-30 -34.5l-2 -1q-32 -38 -47 -57l-34 -41
q-5 -6 -26 -30.5t-43 -41.5q-19 -17 -33 -24q-4 -2 -5.5 -1.5t-1.5 5.5v5q0 12 3 22q9 47 32 94q28 58 82 128l24 32q6 7 3 15q-7 14 -19 14q-5 0 -11 -3q-12 -7 -20 -15q-84 -84 -120 -189q-13 -37 -13 -69q0 -30 15 -48q18 -18 34 -18q11 0 28 10q17 12 38 33q38 37 74 82
q1 1 2.5 3t4.5 3q0 -3 -1 -4.5zM88 -25q-30 -82 -51 -130q-25 -50 -57 -82q-17 -17 -38 -26q-8 -2 -9 -2q-3 0 -4.5 3t-1.5 8q0 10 4 26q7 24 27 53q17 28 61 82q23 27 67 75l4 4l1 -1z" />
    <glyph glyph-name="z" unicode="z" horiz-adv-x="278" 
d="M-33 55q28 36 45 52q53 50 112 97q71 57 147 105l11 7q8 6 6 14q-1 16 -16 29q-6 4 -12 3l-21 -7q-24 -8 -43 -11q-27 -4 -81 -10l-22 -1l-23 1q-11 0 -15 8l-12 12q-4 4 -8 5h-2q-5 0 -7 -6q0 -7 3 -13q8 -17 24 -35q17 -17 40 -21q16 -2 23 -2q16 0 31 3q4 2 6 0
q0 -1 -1.5 -2.5t-2.5 -1.5q-13 -9 -26 -20l-36 -29q-33 -24 -63 -51q-44 -40 -80 -96q-15 -25 -22 -49q-2 -10 -2 -16q0 -8 2 -12q5 -14 16.5 -22.5t25.5 -8.5q4 0 12 2t35 11q79 29 164 29q43 0 71 -7l10 -2q10 0 7 10l-3 6q-7 10 -18 16q-39 19 -79 29q-31 6 -63 6
q-66 0 -130 -25q-2 -2 -5 -1z" />
    <glyph glyph-name="zero" unicode="0" horiz-adv-x="364" 
d="M-10.5 189q-0.5 -6 0.5 -14q3 -52 24 -92q10 -22 29 -39q36 -30 85 -30q25 0 47 13q23 15 45 42q39 50 73 115q46 83 66 165q15 58 15 106q0 31 -8 65q-4 20 -8 33.5t-11 25.5l-2 4q-3 15 -17 23q-29 21 -72 21q-30 0 -65 -21q-41 -25 -84 -79q-54 -70 -83 -146
q-35 -95 -34 -182q0 -4 -0.5 -10zM105 283q12 39 30 79q25 55 46 88q43 65 98 106q12 8 19 10q3 2 8 2t10 -6q6 -10 12 -12q3 -1 3 -8q4 -26 5 -40q2 -61 -21 -147q-25 -88 -78 -180q-24 -41 -59 -88q-22 -28 -39 -40q-2 -1 -7.5 -4t-10.5 -4h-4q-8 0 -10 6q-6 12 -7 19
l-3 18q-9 33 -7 67q0 75 15 134z" />
    <glyph glyph-name="one" unicode="1" horiz-adv-x="358" 
d="M230 507l-21 -45l-11 -26q-12 -30 -22 -52q-48 -107 -71 -176l-9 -26q-16 -46 -23 -70q-10 -32 -11 -51q-1 -11 -11 -15q-21 -7 -48 -25q-7 -6 -10 -9q-5 -5 -3 -11q3 -9 13.5 -16t19.5 -5q16 4 23 7q78 28 119 38l31 7q11 2 22.5 8t14.5 8q7 3 7 10q0 4 -3 8q-5 7 -10 8
q-8 2 -12 2q-22 2 -33 2q-18 0 -34 -3q-5 -1 -5 2q0 4 1.5 10l2.5 10q10 50 33 119q16 46 33 86q6 17 12 31.5t10 26.5q50 128 110 219q16 26 20 33q4 8 3 12q-7 26 -27 37q-1 1 -4 1t-8 -3l-32 -25q-43 -40 -91 -69l-40 -23q-20 -14 -32 -17q-7 -2 -3 -7q0 -2 1 -3.5
t2 -2.5q11 -13 25 -17q9 -3 18 -3q13 0 33 9l22 14q0 -4 -2 -8z" />
    <glyph glyph-name="two" unicode="2" horiz-adv-x="303" 
d="M247.5 593.5l-0.5 -1.5q-2 -8 -8.5 -30.5t-13.5 -40.5q-19 -48 -39 -89q-27 -55 -60 -108l-64 -96q-30 -45 -71 -87l-19 -19q-51 -51 -69 -66q-13 -12 -13 -23q0 -9 4 -17l2 -4q8 -16 24 -16q2 0 10 2l9 3q42 17 87 27q64 16 108 16q23 0 67 -4l64 -7q7 0 9 6q2 4 2 8
q0 11 -9 17q-6 4 -9 5q-52 28 -125 33q-44 1 -93 -8q-1 0 -3.5 -0.5t-5.5 0.5l11 11q51 46 104 108q52 59 83 106q49 77 68 140q16 53 16 92q0 56 -33 89q-15 13 -31 12q-13 0 -28 -5q-70 -28 -115 -93q-23 -32 -28 -65l-1 -12q0 -7 2 -17q3 -9 11 -16q6 -4 9 2q2 4 2 6
q16 32 23 42q24 34 59 64q32 26 54 35q6 4 9 3q2 -1 1.5 -2.5z" />
    <glyph glyph-name="three" unicode="3" horiz-adv-x="350" 
d="M257 347q65 59 90 129q13 39 13 74q0 37 -15 58q-10 16 -32 19q-4 1 -11 1t-19 -2q-16 -2 -44 -14q-53 -23 -87 -63q-13 -15 -25 -38q-7 -15 -8 -29v-4q0 -11 7 -23q5 -9 13 -1q1 2 5 6q28 41 76 71q31 20 59 29q23 5 28 5l9 -1q5 -1 6.5 -3t-0.5 -7q-5 -14 -14 -29
q-18 -28 -56 -70q-59 -64 -135 -128q-28 -23 -35 -31q-8 -9 -6 -21q4 -14 16 -28q6 -6 14 -2q18 8 27 13q27 16 74 29q20 5 37 5q9 0 14 -1q6 -1 7.5 -3t-0.5 -8q-6 -17 -20 -38q-30 -39 -80 -82q-49 -42 -122 -58q-8 -2 -18.5 -2.5t-16.5 -0.5q-16 -2 -23 -2l-16 1
q-12 1 -20 3t-15 8q-3 3 -7 -1q-7 -7 -7 -16q0 -23 23 -41q44 -32 97 -32q27 0 60 12q43 15 89 58q38 36 73 90q22 34 29 61q5 18 5 34q0 20 -7 37q-10 26 -32 30l-5 2z" />
    <glyph glyph-name="four" unicode="4" horiz-adv-x="385" 
d="M102 303.5q1 2.5 2 3.5q24 46 31 63q24 54 67 130q18 35 38 63q10 14 10 32l-1 11l-2 4q-8 13 -23 13q-8 0 -13 -4q-25 -17 -43 -36l-27 -35q-49 -67 -95 -157q-36 -71 -53 -152q-3 -21 -3 -23q2 -10 9 -15q10 -6 20 -6q7 0 14 4q3 2 9 4q41 26 47 30q8 5 42 27.5
t65 39.5q2 1 3.5 2t4.5 1q1 -2 -2 -7l-13 -28q-19 -46 -41 -118q-19 -58 -23 -102q-2 -27 12 -45q6 -9 17 -14l4 -1q6 0 7 7l7 17q16 50 27 74q11 28 37 82q40 90 71 148q45 89 114 193l48 75q10 14 15 28q1 2 1 5q0 8 -8 14q-5 5 -10 5q-3 0 -8 -3q-7 -3 -19 -13l-41 -42
q-18 -18 -38.5 -42.5t-28.5 -34.5l-16 -20q-30 -38 -74 -110q-4 -9 -15 -12q-27 -6 -52 -20q-30 -15 -64 -36q-6 -4 -10 -5q0 3 1 5.5z" />
    <glyph glyph-name="five" unicode="5" horiz-adv-x="434" 
d="M174 560l-3 -5q-69 -91 -94 -167q-2 -5 -6.5 -20t-6.5 -28l-1 -7q0 -8 4 -12q7 -14 20 -27q8 -6 15 -6q6 0 12 3q8 4 43 18q57 22 90 26q6 1 18 1q15 0 23 -2q7 -2 8 -8q1 -4 1 -13q0 -10 -1 -17t-2 -12q-5 -33 -28 -72q-34 -57 -88 -102q-68 -55 -136 -65q-35 -5 -60 -4
q-11 0 -12 8q-1 4 -7 10q-6 4 -10 2q-3 -1 -3 -9q0 -9 6 -17q10 -16 29 -22q18 -7 42 -7q41 -1 83 3q44 6 80 25q56 27 94 77q30 39 46.5 78t16.5 83q0 39 -18 71q-33 57 -93 57q-13 0 -20 -1q-30 -5 -63 -17l-4 -2t-5 -1q2 4 2 5q26 40 30 46q37 58 79 127q4 7 12 7l30 3
l72 6q34 3 65 15q6 2 8 5t2 10v9q0 6 -1.5 8.5t-5.5 4.5q-3 1 -14 4q-35 6 -87 6q-13 0 -39 -2q-35 -3 -79 -11q-35 -7 -61 -17q-18 -8 -28 -21q-7 -10 -8 -19v-2q0 -9 9 -9q7 0 11 1l24 6q6 2 10 1q0 -2 -1 -2z" />
    <glyph glyph-name="six" unicode="6" horiz-adv-x="345" 
d="M188 392.5q1 1.5 2 2.5q26 40 58 80q45 58 104 92q15 9 33 14q3 1 5.5 0.5t3.5 -4.5q3 -6 8 0q2 2 7 6q5 2 5.5 4.5t-0.5 6.5q-5 8 -12 12q-22 14 -45 14q-6 0 -18 -2q-47 -9 -87 -35q-90 -60 -161 -161q-61 -91 -89 -201q-12 -51 -12 -92t10 -67q5 -13 12 -23
q28 -35 73 -35q25 0 53 19q24 18 44 41q67 79 99 180q11 31 11 62q0 46 -28 66q-25 18 -55 18q-10 0 -15 -1q-1 0 -2.5 -0.5t-4.5 0.5q0 2 1 3.5zM234 244q-41 -101 -114 -169q-15 -15 -30 -23q-2 -2 -6 -4q-5 -2 -5 3l-1 12l1 12q6 56 12 85q17 89 64 178q5 8 8 9
q29 16 56 19l8 1q9 0 13 -4t8 -15q2 -7 2 -15.5v-11.5q1 -31 -16 -77z" />
    <glyph glyph-name="seven" unicode="7" horiz-adv-x="365" 
d="M254 355.5q1 1.5 2 2.5q35 48 70 87l36 41l67 77q17 19 23 30q3 6 3 12q0 7 -5 15l-5 6q-6 8 -7 11q-2 6 -5 7.5t-10 0.5q-4 -1 -19 -5q-34 -11 -76 -26q-58 -22 -158 -42q-40 -9 -84 -7q-14 2 -20 2q-8 0 -11 -7q-3 -4 -3 -12q0 -19 14 -28q9 -6 19 -9q17 -3 32 -3
q18 0 36 3q45 7 92 23q34 10 75 31q6 4 9 4l-2 -3q-33 -26 -64 -60l-46 -47l-11 -11l-37 -44q-38 -44 -55 -67q-3 -4 -9 -6l-55 -10q-10 -2 -15 -4q-8 -4 -10 -13v-3q0 -6 6 -6h10q13 2 37 4q7 2 10 0q-1 -3 -6 -11l-30 -51q-38 -69 -56 -147q-6 -34 -6 -50q0 -37 28 -59
l13 -6h3q8 0 10 5q9 7 8 17q0 3 2 7q13 37 32 77q20 42 53 98q36 62 83 132q5 7 12 8q18 1 54 9q17 4 23 5q6 0 10 4q5 3 5 10q-1 5 -9 5q-9 0 -22 0.5t-31 -0.5q-2 0 -5.5 -1t-6.5 0q1 3 2 4.5z" />
    <glyph glyph-name="eight" unicode="8" horiz-adv-x="306" 
d="M-20 132q-3 -44 28 -71l35 -33q4 -6 10 -9q23 -17 51 -17q12 0 24 3q28 10 44 26q36 28 46 69q4 16 4 36q0 34 -12 65q-17 41 -37 69q-3 5 -3 6t5 6l3 4q36 40 68 70l17 17l21 23q35 37 62 72q23 34 32 60q8 22 8 42q0 29 -16 54q-19 28 -55 28q-17 0 -42 -7
q-86 -32 -139 -95q-64 -76 -64 -156q0 -26 11 -53q2 -4 2 -7q0 -5 -5 -10q-47 -51 -69 -98q-22 -42 -28 -74q-1 -6 -1 -20zM102 370l1 11q7 68 50 125q52 68 135 102q22 8 43 8q4 0 6 -1q3 0 4 -1.5t0 -4.5q-2 -6 -6 -14q-9 -16 -24 -34q-3 -4 -7 -9t-9 -13
q-16 -21 -38.5 -43.5t-43.5 -42.5q-46 -43 -47 -44q-38 -34 -56 -52q-3 -3 -6 -3q-2 10 -2 16zM149 78q-31 -29 -71 -31h-4q-6 0 -8.5 1.5t-3.5 7.5l-1 14q0 6 2 18q13 56 55 121q14 23 31 43l4 4q4 4 6.5 3.5t4.5 -5.5t8 -17t9 -22q7 -21 7 -45q0 -7 -2 -23q-6 -40 -37 -69
z" />
    <glyph glyph-name="nine" unicode="9" horiz-adv-x="342" 
d="M207 262q-25 -73 -72 -151q-17 -29 -45 -55q-24 -21 -54 -33l-9 -2q-3 0 -5.5 3.5t-3.5 5.5q-5 11 -19 14h-2q-9 0 -7 -9q4 -15 11 -22q12 -12 33 -17q6 -2 17 -2q9 0 27 4q86 24 143 92q44 49 76 125q27 69 40 133q15 75 15 118l-1 23q-2 36 -11 63q-16 40 -47 60
q-18 12 -37 12q-8 0 -22 -4t-27 -12q-36 -20 -71 -60q-56 -60 -85 -132q-22 -52 -22 -96q0 -67 54 -94q15 -8 34 -8t34 7q15 6 32 20q5 4 11.5 9.5t14.5 11.5zM87 385q35 84 102 147q32 30 61 41q8 3 10 3q3 0 4 -3.5t1 -9.5l1 -29q1 -20 -5 -60q-5 -46 -14 -76
q-1 -6 -6 -14l-18 -23q-25 -33 -36 -46q-34 -38 -65 -55q-17 -10 -33 -9q-9 0 -13 7q-5 11 -7 25v16q0 40 18 86z" />
    <glyph glyph-name="period" unicode="." 
d="M62 63q13 -18 31 -26q8 -3 14 -3q10 0 19 9q18 18 18 42q0 5 -2 15q0 1 -0.5 3t0.5 5v3q0 5 -4 11q-9 15 -24 24q-10 5 -18 5q-5 0 -17 -4q-30 -12 -29 -45q-1 -21 12 -39z" />
    <glyph glyph-name="comma" unicode="," horiz-adv-x="254" 
d="M147.5 146q-6.5 11 -17.5 17q-5 3 -9 3q-6 0 -11 -9q-4 -7 -6 -17q-7 -22 -29 -62q-5 -11 -21 -29q-4 -4 -4 -11t7 -13q12 -9 27 -6q8 3 17 8q52 33 53 94q0 14 -6.5 25z" />
    <glyph glyph-name="colon" unicode=":" horiz-adv-x="292" 
d="M178.5 309q-12.5 17 -29.5 20h-4q-10 0 -16 -7q-8 -12 -7 -22q1 -17 14.5 -32t28.5 -19l5 -1q5 0 9 4q12 12 13 25q-1 15 -13.5 32zM50 113q1 -1 1 -2.5t1 -2.5q11 -40 55 -53l6 -1q12 0 15 11q1 3 1 8q0 9 -3 16q-4 9 -3 18q1 2 1 8v4q0 10 -7 17q-15 13 -32 16
q-2 1 -6 1q-13 0 -21 -10t-8 -25v-5z" />
    <glyph glyph-name="semicolon" unicode=";" horiz-adv-x="300" 
d="M195 293q-14 18 -30 24q-4 2 -6 2q-4 0 -7 -5q-2 -2 -3.5 -2.5t-2.5 -0.5q-11 -6 -14 -17q-1 -3 -1 -8q0 -9 5 -17q15 -20 39 -23h3q10 0 16 9t6 21q0 11 -5 17zM118 150q-8 12 -19 18l-8 2q-7 0 -10 -9q-1 -3 -4 -13q-7 -39 -24 -77l-2 -5l-1 -5q0 -11 11 -17
q6 -3 11 -3q3 0 11 2q30 13 42 37q8 13 8 27q-1 23 -15 43z" />
    <glyph glyph-name="ellipsis" unicode="&#x2026;" 
d="M144 85q0 -24 -18 -42q-9 -9 -19 -9q-12 0 -26 9.5t-23 25.5t-8 33q-1 33 29 45q12 4 17 4q8 0 18 -5q15 -9 24 -24q5 -7 4 -14q-1 -3 -0.5 -5t0.5 -3q2 -10 2 -15z" />
    <glyph glyph-name="exclam" unicode="!" horiz-adv-x="467" 
d="M86 128q0 -15 12 -27q5 -5 8 -5q4 0 7 7q13 28 25 49q8 14 16 25l12 19l80 133l28 46q25 43 56 92q21 31 32 56q5 12 5 20q0 9 -3 16q-4 14 -13 14q-5 0 -13 -6q-15 -11 -33 -35q4 5 -47 -59l-13 -17q-56 -72 -92 -138q-20 -37 -35 -77t-30 -93q-2 -5 -2 -17v-3zM94 49
q-3 15 -13 25l-7 5q-7 2 -7 -5v-8q1 -2 0.5 -3.5t-2.5 -2.5q-13 -12 -15 -33q-2 -12 5 -25t17 -18q5 -3 9 -3q7 0 13 8q2 3 4 9q2 8 2 12q0 5 -1 8q0 14 -5 31z" />
    <glyph glyph-name="exclamdown" unicode="&#xa1;" horiz-adv-x="467" 
d="M322 505q6 -17 14 -24q4 -4 7 -5q6 -1 7 4l-1 8q0 4 3 7q11 9 15 32q1 12 -5.5 25t-16.5 19q-6 3 -10 3q-7 0 -13 -9l-3 -8q-3 -12 -2 -21q0 -14 5 -31zM319 454q-5 5 -8 5q-4 0 -7 -8l-25 -49q-9 -14 -16 -24.5t-12 -18.5l-80 -133l-35 -57q-32 -54 -50 -81
q-18 -30 -32 -56q-4 -9 -4 -21q0 -11 2 -16q6 -14 14 -14q6 0 13 6q16 15 33 35q12 14 34 44l25 32q59 76 93 138q35 65 64 170q3 9 3 17q0 18 -12 31z" />
    <glyph glyph-name="question" unicode="?" horiz-adv-x="555" 
d="M409 585q8 -2 9.5 -5.5t-0.5 -10.5q-3 -11 -9 -22q-3 -5 -24 -34q-32 -41 -80 -86q-72 -68 -105 -105q-27 -30 -46 -61q-9 -14 -28 -54l-12 -25l-19 -45q-6 -15 -9 -34v-4q0 -8 4 -15.5t10 -10.5q8 -5 8 5v3q0 3 2 9q3 9 8.5 20.5t8.5 17.5q24 44 39 65q44 59 121 134
q82 78 124 129q24 32 33 49q11 24 11 47q-2 33 -21 58q-25 36 -69 34q-24 0 -60 -9q-104 -29 -190 -120q-22 -24 -29 -48q-3 -10 -3 -20q0 -26 22 -48q8 -5 11 -6l4 -1q2 0 4 2t2 5t3.5 11t1.5 14q0 3 2 5l6 11q15 25 54 58q56 49 121 73q42 16 74 17q11 0 21 -3zM117 17
q-1 1 -1 2.5t-1 2.5q-13 28 -45 41q-6 2 -10 -2q-2 -2 0 -10q3 -2 -1 -6q-9 -7 -9 -16q0 -3 2 -9t10 -14t15 -12.5t16 -4.5q10 -1 17 5.5t7 17.5v5z" />
    <glyph glyph-name="questiondown" unicode="&#xbf;" horiz-adv-x="555" 
d="M388 506q1 -1 1 -2.5t1 -2.5q13 -28 45 -41q6 -2 10 2q3 3 0 10q-2 3 1 6q9 8 9 16q0 3 -2 9t-10 14t-15 12.5t-16 4.5q-10 1 -17 -5.5t-7 -17.5v-5zM96 -62q-8 2 -9.5 5.5t0.5 10.5q3 11 9 22q3 5 24 34q32 41 80 86q72 68 105 105q27 30 46 61q9 14 28 54l12 25l19 45
q6 16 9 34v4q0 8 -4 15.5t-10 10.5q-8 5 -8 -5v-3q0 -3 -2 -9q-3 -9 -8.5 -20.5t-8.5 -17.5q-24 -44 -39 -65q-44 -59 -121 -134q-82 -78 -124 -129q-24 -32 -33 -49q-11 -24 -11 -47q2 -33 21 -58q25 -36 69 -34q24 0 60 9q104 29 190 120q22 24 29 48q3 11 3 20
q0 26 -22 48q-8 5 -11 6q-1 1 -4 1q-6 0 -6 -7q0 -3 -3.5 -11t-1.5 -14q0 -3 -2 -5l-6 -11q-15 -25 -54 -58q-56 -49 -121 -73q-42 -16 -74 -17q-10 0 -21 3z" />
    <glyph glyph-name="periodcentered" unicode="&#xb7;" 
d="M62 231q13 -18 31 -26q7 -3 14 -3q10 0 19 9q18 18 18 42q0 5 -2 15q0 1 -0.5 3t0.5 5v3q0 5 -4 11q-9 15 -24 24q-10 5 -18 5q-5 0 -17 -4q-30 -12 -29 -45q-1 -21 12 -39z" />
    <glyph glyph-name="bullet" unicode="&#x2022;" horiz-adv-x="312" 
d="M64 231q16 -27 40 -44t44 -17q16 0 33 17q31 33 31 73q0 12 -3 25q0 2 -0.5 6t0.5 8l1 4q0 8 -8 20q-15 26 -41 41q-18 8 -32 8t-29 -6q-51 -21 -50 -78q-2 -30 14 -57z" />
    <glyph glyph-name="asterisk" unicode="*" horiz-adv-x="300" 
d="M227 564l16 8q7 6 7 11q0 15 -15 17q-10 0 -14 -1q-8 -2 -35 -11q-1 0 -4 -1.5t-6 -0.5l4 19q1 2 1 6q0 8 -5 16q-4 7 -10 7q-5 0 -10 -5q-2 -2 -12 -17q-4 -7 -7 -12.5t-5 -9.5q-1 0 -4 3q-4 7 -14 21q-3 5 -9 10q-2 1 -5 1q-6 0 -7 -7q0 -3 2 -11q5 -16 12 -29
q0 -1 1.5 -3.5t0.5 -5.5h-17q-3 0 -12 -1t-15 -3q-15 -4 -15 -22q0 -7 2 -9.5t8 -3.5q14 -2 22 -1q6 2 10 -1l-10 -12q-11 -13 -15 -20q-5 -7 -5 -12q0 -2 2 -8q4 -8 11 -3q16 15 26 21q2 2 20 12l3 -16q1 -12 11 -23q6 -6 11 -4q4 3 3 6.5t-1 4.5q-1 2 -1 9q0 16 5 26
l22 -30q14 -20 24 -30q4 -5 9 -8q4 -2 7 1q4 4 2 7q-1 5 -7 11q-6 4 -7 7q-22 34 -33 57q-3 3 -2 5q2 1 5 1q19 -1 37 -6q2 -1 5 -1q6 0 7 7l1 4q0 6 -6 10q-5 3 -9 4t-8 3q14 8 28 13z" />
    <glyph glyph-name="numbersign" unicode="#" horiz-adv-x="460" 
d="M87 177l-2 -4q-12 -26 -17 -51q-4 -16 -13 -61q-2 -10 -2 -14q0 -6 5 -9q7 -5 12 -5q13 0 18 13q1 5 5 15q10 24 21 44q13 21 34 72q3 8 12 8h63h5q1 0 2 -1.5t0 -2.5l-1 -4q-23 -55 -39 -107q-10 -25 -12 -42q-1 -3 -1 -11q1 -8 10 -7q5 1 10 6q10 7 13 17q6 12 9 24
q19 51 48 120q5 9 13 8l23 -1q15 0 23 -1q23 0 34 -1q8 0 12 1q4 0 6.5 3.5t2.5 8.5v3q0 3 -2 4.5t-6 2.5l-9 2q-32 4 -48 7l-24 3q-4 1 -3 6q0 1 2 3q36 74 57 109q3 7 11 7q44 2 65 2h11q8 1 10 11q1 6 -5 8l-14 2l-49 5q-8 1 -4 8l3 6l21 35l57 90q1 1 4 7q4 4 2 7t-9 3
q-9 -1 -17 -11q-35 -43 -56.5 -72t-40.5 -60q-5 -8 -15 -8q-14 2 -41 2q-21 0 -32 1q-7 1 -7.5 2t2.5 6v1q26 48 41 72q19 26 23 35l2 8q0 5 -9 9q-4 2 -10 2q-11 0 -22 -9q-9 -8 -21 -24q-32 -42 -60 -93q-5 -9 -14 -9q-44 -2 -77 -8q-22 -4 -32 -9q-10 -3 -10 -13v-3
q0 -8 9 -8q7 -1 12 -0.5t9 0.5q21 3 42 3l28 2h3t3 -2q0 -3 -3 -8q-22 -44 -32 -67l-15 -31q-3 -7 -10 -7l-20 -1q-36 -4 -59 -12q-11 -4 -16 -9q-6 -6 -6 -13t2.5 -10t9.5 -4q14 0 24 1t17 2l33 2l2 -1q0 -3 -1 -5zM282 343.5q9 0.5 21 -0.5q6 0 6.5 -1t-1.5 -6
q-22 -37 -50 -94l-5 -10q-3 -6 -5 -7.5t-8 -0.5l-63 5q-5 0 -6 1t1 6l33 74l13 27q3 7 11 7h37v-1q7 0 16 0.5z" />
    <glyph glyph-name="slash" unicode="/" horiz-adv-x="368" 
d="M366 559q-4 9 -9 9q-3 0 -10 -7l-3 -4q-15 -20 -36 -54q-38 -61 -61 -104q-6 -13 -13 -22l-46 -86l-42 -83l-62 -129q-12 -23 -21.5 -49.5t-11.5 -33.5q-1 -2 -1 -7q0 -10 8 -16q4 -4 7 -4q4 0 8 5q8 12 13 17q15 17 26 38q10 18 43 84l50 105q16 34 50 102l61 122
q12 24 38 72q11 24 12 28q3 8 1 14z" />
    <glyph glyph-name="backslash" unicode="\" horiz-adv-x="321" 
d="M256 -49q3 -1 7 -1q9 0 8 13l-1 5q-3 24 -13 64q-14 59 -30 117q-22 78 -35 118l-21 66l-8 22q-15 45 -47 135q-5 16 -13.5 34.5t-11.5 25.5q-2 4 -4.5 9.5t-5.5 12.5q-7 13 -22 11q-5 0 -7 -1.5t-2 -5.5q0 -7 1 -13t1 -12q2 -24 9 -45q2 -7 21 -67q7 -18 8 -23l39 -110
l9 -27q23 -67 28 -80q5 -14 8 -25l35 -105l24 -77q4 -13 11 -29q3 -8 9 -10z" />
    <glyph glyph-name="parenleft" unicode="(" horiz-adv-x="290" 
d="M53 110q6 -41 33 -109q2 -5 8 -15q10 -10 21 -10q8 0 10.5 2.5t-0.5 6.5q-4 6 -6 12q-14 44 -17 87q-3 66 8 136q14 92 51 170q43 93 112 176q3 3 7.5 8t7.5 10q2 3 2 8q0 6 -6 9q-6 6 -15 3q-10 -3 -20 -11q-19 -13 -37 -35q-42 -50 -70 -99q-47 -82 -70 -160
q-22 -74 -22 -144q-1 -22 3 -45z" />
    <glyph glyph-name="parenright" unicode=")" horiz-adv-x="241" 
d="M154 461q-1 -23 -3 -42q-9 -74 -21 -123q-23 -96 -81 -202l-43 -82l-6 -16v-3q0 -6 3 -11.5t8 -7.5l4 -1q6 0 13 9l1 1q28 38 41 57q43 67 76 160q15 45 29 108q12 61 15 125q1 10 1 31q0 34 -4 61q-6 36 -11 55q-3 17 -13 28q-9 7 -12 4q-5 -4 -3 -11l4 -47q2 -13 2 -40
q1 -7 1 -21q0 -9 -1 -32z" />
    <glyph glyph-name="braceleft" unicode="{" horiz-adv-x="187" 
d="M10 93q6 -28 13 -40q18 -34 64 -51q4 -2 14 -2q8 0 13 8q2 3 2 7t-6 7q-5 3 -10 -2q-4 -4 -10 -4q-3 0 -9 2q-15 8 -20 21q-6 14 -7 22q-5 28 -7 65q-3 58 11 115q3 9 3 19q0 17 -11 34q-3 4 -3 5.5t4 4.5q13 9 23 26q21 37 33 63q42 89 91 142q21 22 39.5 35.5
t41.5 19.5q11 3 7 13q-8 23 -30 27q-4 1 -11 1q-11 0 -28 -7q-33 -16 -62 -49q-45 -52 -73 -122q-8 -22 -19.5 -47.5t-15.5 -34.5q-15 -31 -41 -43q-8 -3 -5 -13q2 -11 10 -18q11 -9 6 -22q-1 -1 -1 -3q-12 -43 -14 -106q1 -35 8 -73z" />
    <glyph glyph-name="braceright" unicode="}" horiz-adv-x="272" 
d="M191 563q-6 25 -23 45l-6 6q-6 3 -8 -5q0 -2 2 -6q4 -12 7 -18q5 -11 7 -26l2 -13q1 -9 1 -28q0 -13 -1 -20q-4 -24 -16 -72q-11 -37 -32 -80q-4 -8 -4 -17q0 -11 4 -19q1 -4 11 -23q3 -4 2.5 -5.5t-5.5 -3.5l-4 -2q-7 -3 -9.5 -8t-1.5 -14l3 -11l2 -8q-2 -7 -4 -23
q-5 -30 -6 -32q-10 -34 -44 -79q-25 -33 -61 -74l-6 -9q-2 -3 0 -6q2 -6 7 -9.5t11 -2.5q2 1 11 4q15 6 19 7q14 5 23 14l33 36q42 50 51 113q2 16 2 24q0 7 -2 19v2q0 4 5 7q1 0 5 2q13 6 11 21q-2 10 -4 16q-4 11 -14 31q-4 7 0 13q23 43 29 78q1 8 5 29q10 44 9 64
q0 42 -11 83z" />
    <glyph glyph-name="bracketleft" unicode="[" horiz-adv-x="272" 
d="M279 615q-15 -11 -28 -29q-34 -42 -64 -93q-44 -74 -63 -112l-10 -21l-33 -67q-21 -39 -57 -121l-12 -28q-12 -27 -12 -56q0 -17 5 -39q6 -23 21.5 -36t36.5 -13q6 0 16 2q11 2 26 3t21 1q1 0 3.5 0.5t3.5 2.5q1 3 -0.5 5.5t-1.5 3.5q-2 2 -6 4q-9 4 -18 6l-38 5
q-9 2 -26 2q-7 0 -8 5t-2 12t-1 17q0 11 3 20q1 3 4 14q26 81 84 186q54 102 102 180q33 53 62 89q13 14 23 19q11 6 25 9q13 3 23 7q14 5 14 19q0 6 -1 10q-2 8 -11 10q-6 1 -20 1q-38 0 -61 -18z" />
    <glyph glyph-name="bracketright" unicode="]" horiz-adv-x="370" 
d="M52 0h24q10 0 15 4q14 7 20 17q13 17 19 30q7 20 10 25l56 116l79 161l69 132q19 39 23 57q3 11 3 20q0 14 -6 27t-19 17l-10 3q-24 7 -61 11h-16q-10 -1 -11 -11q0 -19 16 -26q10 -4 16 -5q9 -3 29 -5q25 -5 28 -6q4 -1 5 -2t-1 -6q-3 -8 -4 -10q-20 -44 -52 -99
q-28 -51 -80 -155q-19 -38 -55 -114q-5 -11 -12.5 -25.5t-15.5 -32.5q-19 -39 -30 -53l-15 -20q-9 -11 -22 -11q-12 1 -26.5 -3.5t-20.5 -6.5q-5 -1 -6.5 -4.5t1.5 -8.5q8 -15 24 -15h26v-1z" />
    <glyph glyph-name="hyphen" unicode="-" horiz-adv-x="339" 
d="M179.5 207.5q5.5 -0.5 13.5 0.5q6 0 20 1.5t26 0.5q23 0 34 1q7 1 10.5 4t5.5 11v3q0 6 -7 10l-13 3l-44 8q-20 4 -43 6q-9 1 -22.5 1t-22.5 1q-5 1 -15 1q-11 0 -33 -2q-6 0 -10 -1t-7 -2q-11 -3 -16 -9t-6 -17v-6q0 -7 4 -10.5t14 -4.5h6l43 2q14 0 22 -1q5 0 15 -0.5
t17 0.5q3 0 8.5 -0.5z" />
    <glyph glyph-name="underscore" unicode="_" horiz-adv-x="541" 
d="M-19 -18l95 10q62 8 148 11q41 3 81 3q14 -1 25 -0.5t18 0.5q24 -1 52 11q13 6 19 15q2 4 2 6q0 4 -5 7q-7 6 -20 8l-29 1l-78 1q-83 0 -188 -5q-52 -4 -88 -11q-24 -6 -35 -12q-19 -10 -27 -28q-1 -2 -1 -6q0 -9 9 -10q5 -1 14 -1h8z" />
    <glyph glyph-name="quotesinglbase" unicode="&#x201a;" horiz-adv-x="600" 
d="M147.5 146q-6.5 11 -17.5 17q-5 3 -9 3q-6 0 -11 -9q-4 -7 -6 -17q-7 -22 -29 -62q-5 -11 -21 -29q-4 -4 -4 -11t7 -13q12 -9 27 -6q8 3 17 8q52 33 53 94q0 14 -6.5 25z" />
    <glyph glyph-name="quotedblbase" unicode="&#x201e;" horiz-adv-x="600" 
d="M147.5 146q6.5 -11 6.5 -25q-1 -61 -53 -94q-9 -5 -17 -8l-7 -1q-9 0 -20 7q-7 6 -7 13t4 11q16 18 21 29q22 40 29 62q2 10 6 17q5 9 11 9q4 0 9 -3q11 -6 17.5 -17z" />
    <glyph glyph-name="quotedbl" unicode="&#x22;" horiz-adv-x="241" 
d="M191 579q-2 8 -10.5 17.5t-16.5 10.5l-5 1q-8 0 -11 -8q-16 -24 -13 -50q4 -26 8 -39q7 -18 11 -24q9 -11 23 -14q5 -2 7 2q2 2 0 6l-4 8q-2 14 -2 21q0 11 3 21q6 22 8 33q2 6 2 10v5zM72 600q-5 -5 -10 -15q-12 -23 -12 -55q0 -18 14 -41q6 -10 17 -15q3 -1 8 -1
q3 1 4 3.5t-1 4.5q-5 7 -3 17q2 30 10 48l13 28q3 10 1 13q-2 7 -11 13.5t-16 6.5t-14 -7z" />
    <glyph glyph-name="quotesingle" unicode="'" horiz-adv-x="146" 
d="M186 598q-7 9 -14 9q-6 0 -13 -9q-2 -4 -4 -5l-21 -36q-20 -34 -31 -51q-3 -6 -3 -11q0 -6 7 -13q9 -7 16 -7t14 6l8 8q18 18 36 41q14 20 15 41q0 15 -10 27z" />
    <glyph glyph-name="cent" unicode="&#xa2;" horiz-adv-x="366" 
d="M2 233q22 -108 114 -159q7 -5 6 -11q0 -8 2 -24l1 -25v-9q0 -14 1 -21q3 -20 21 -24h3q10 0 11 10q0 9 1 13q1 15 5 45q2 7 4 23q2 7 7 7q34 3 69 32q46 40 68 61q25 23 40 42q6 10 10 18l1 3q0 8 -10 13q-3 3 -6 3q-2 0 -7 -5q-39 -38 -108 -90q-25 -18 -48 -26
q-6 -2 -7 -2q-3 0 -2 9q6 44 8 66q10 77 17 118q10 61 36 181q13 59 22 97q1 8 9 11q21 9 35 11q9 3 20 3q7 0 11 -1q8 -2 9 -8l3 -8q6 -9 14 -1q3 3 3 8q2 6 0 12q-13 45 -53 53q-12 3 -22 2q-6 -1 -4 5l4 16l19 64q1 3 1 8t-2 8q-4 7 -8 7t-9 -5t-6 -8q-8 -14 -11 -21
q-15 -32 -31 -79q-4 -9 -9 -11q-36 -16 -81 -55q-84 -76 -125 -183q-26 -65 -28 -137q0 -24 2 -36zM203 528q-39 -145 -52 -214q-16 -78 -23 -153l-2 -24q0 -7 -2 -23q0 -5 -1.5 -5.5t-5.5 0.5q-18 8 -31 26q-21 26 -27 64q-3 21 -3 41q0 48 16 101q30 96 96 171
q21 25 41 37z" />
    <glyph glyph-name="currency" unicode="&#xa4;" horiz-adv-x="396" 
d="M345 401q-1 4 -3 8q-4 7 -13 5q-3 -1 -14 -7q-16 -10 -31 -31l-13 -20q-2 -4 -5 -3t-9 4.5t-10 8.5q-10 12 -29 14q-23 0 -46 -15q-16 -10 -35 -27q-4 -4 -5 -4t-5 4l-19 17q-6 5 -21 17t-26 23l-3 3q-5 3 -7 -2q-1 -3 -1 -10q4 -10 7 -15l17 -25q10 -14 24 -25l10 -7
q5 -4 5 -5t-2 -6l-2 -4q-14 -27 -14 -61q0 -26 12 -52q1 -3 1 -5t-4 -4q-13 -12 -19 -18q-11 -12 -20 -28.5t-12 -22.5q-2 -3 -2 -9q0 -8 8 -16q4 -3 6 -3t5 3q18 17 35 35q9 9 21 29q2 4 3.5 4t4.5 -2l4 -3q17 -11 33 -11q8 0 17 3q13 3 23 9q6 3 7.5 3t5.5 -5t34 -49
q7 -10 14 -14q1 0 4.5 -1t5.5 0q3 2 2.5 5t-0.5 5q-1 1 -1 3q-14 36 -27 51q-3 5 -11 15q-4 6 -4 7t6 7q22 24 31 38q21 32 20 68q0 21 -8 43q-2 5 -1.5 7t4.5 5l4 3q12 7 23 19t21 24q3 4 5 14q0 2 -1 6zM143 267q24 37 62 60q6 4 16 7q4 2 11 2q11 0 19 -7l2 -2t3 -1
q19 -8 19 -26q0 -16 -13 -40q-27 -47 -70 -68q-13 -7 -26 -8q-2 -1 -7 -1q-9 0 -19 5q-13 7 -12 19v7q-1 25 15 53z" />
    <glyph glyph-name="dollar" unicode="$" horiz-adv-x="366" 
d="M292 676q8 24 18 44q2 3 2 7q0 5 -9 5q-11 -1 -18 -12l-12 -16q-18 -26 -26 -41q-3 -6 -9 -9q-39 -15 -78 -43q-73 -50 -115 -117q-25 -38 -34 -78q-2 -14 -2 -20q0 -12 3 -24q18 -70 88 -85q6 0 9 -1.5t3 -4.5l-2 -8q-21 -75 -37 -160l-6 -40q0 -1 -1 -4.5t-4 -5.5
q-13 -4 -32 -7q-6 -2 -3 5q1 3 12 13q4 3 4 5t-2 6q-6 9 -14 6q-16 -10 -22 -17q-5 -7 -5 -13q0 -5 3 -11q5 -8 12 -14q17 -14 38 -14q5 0 6 -1t1 -6q-3 -23 -3 -46q0 -11 2 -33q0 -10 3 -19t12 -6q9 2 12 12q2 10 4 26l9 74q0 8 8 10l8 4q48 19 79 53q43 49 65 116
q6 18 6 36q-1 29 -20.5 54t-50.5 30l-19 3q-4 1 -4.5 2t0.5 5q0 3 1 4l26 89q25 78 60 168q2 6 10 9q37 13 70 13q19 0 33 -5q9 -3 9 -9q0 -13 -6 -39l-4 -21q-2 -8 5 -8h5q8 0 15 4q24 18 21 46q-1 28 -23 53q-30 37 -84 32q-6 0 -18 -2q0 4 1 6zM192 536q-22 -63 -42 -126
q-12 -38 -20 -67q-2 -7 -3.5 -8t-8.5 -1q-23 2 -44 6q-12 3 -19 7q-8 4 -10 15q-1 22 8 46q12 33 38 65q47 62 109 100q4 4 8 4zM111 93q9 54 26 121q6 20 16 60q1 6 3 7t8 1q25 0 49 -3q9 -2 12.5 -4t3.5 -8q0 -5 -1 -9q-7 -37 -26 -71q-22 -45 -52 -74q-17 -15 -35 -25
q-2 -2 -4 -2q-2 3 0 7z" />
    <glyph glyph-name="Euro" unicode="&#x20ac;" horiz-adv-x="627" 
d="M161 402q-19 -47 -23 -59q-3 -6 -8 -7q-6 0 -16 -2q-23 -5 -40 -14q-15 -10 -18 -25l-1 -4q0 -9 11 -9q3 -1 5 -0.5t4 0.5l35 4h6q3 0 3 -2t-1 -6l-5 -20q-12 -57 -12 -101q0 -20 3 -43q3 -28 13 -52q14 -29 41.5 -45.5t57.5 -16.5q8 0 20 2q40 9 72 46q32 38 47 57
q19 23 32 45q6 10 7 17q1 4 -2 7t-8 3q-7 0 -10 -5q-3 -6 -13 -18q-21 -24 -43 -46l-17 -18q-23 -23 -46 -38q-26 -19 -45 -23q-2 -1 -7 -1q-7 0 -13 7q-10 12 -15 29q-7 22 -7 58q0 23 1 34q4 60 27 131q2 8 4 9t10 1q53 0 79 -1q6 0 8 2q6 6 6 13q0 6 -2.5 8t-7.5 4
q-4 2 -7 2q-21 4 -34 5l-33 3q-5 1 -4 6l2 3q11 26 30 62q4 8 14 8q17 1 30 0.5t22 -0.5h26q9 0 16 -3q5 -2 10 3q3 5 3 9q0 8 -9 11q-6 3 -22 5q-18 3 -31.5 4t-22.5 2q-2 0 -6 0.5t-4 2.5t5 9q31 48 67 87q49 55 104 93q29 20 52 26q5 2 6.5 1t2.5 -5q2 -10 4 -26l1 -33
q0 -9 7 -15q5 -4 14 -4q11 0 16 5q25 20 25 52q0 28 -17 45q-37 34 -80 34q-16 0 -31 -4q-29 -7 -66 -30q-51 -33 -99 -90q-53 -61 -94 -135q-4 -7 -12 -7q-31 0 -74 -9q-26 -6 -36 -12q-14 -8 -17 -23l-1 -4q0 -7 10 -7l6 1q28 4 42 5l29 3q8 1 24 1v-2z" />
    <glyph glyph-name="sterling" unicode="&#xa3;" horiz-adv-x="574" 
d="M396 120q26 12 49 28q12 8 18 15q4 4 4 6q0 3 -6 6q-4 2 -6 2q-4 0 -9 -3q-36 -19 -64 -29q-29 -9 -48 -9q-7 0 -19 2l-20 4q-32 7 -54 6q-6 0 -20 -2q-4 -1 -3 3l1 6q11 34 19 76q7 40 15 118q1 9 2 11t5 2.5t6 1.5q42 9 126 19q10 1 14 10q3 6 3 12v3q0 10 -11 13
q-12 2 -19 2q-72 0 -109 -5h-4q-4 0 -4.5 2.5t0.5 6.5v3q6 38 10 57q18 85 51 144q22 41 52 71q22 22 48 32q16 5 26 4q10 0 13 -10q7 -15 9 -37q3 -57 -17 -105l-21 -51q-6 -16 -5 -31q0 -7 5 -10t11 0q14 6 23 19q34 52 53 119q4 18 4 29q0 78 -74 111q-16 8 -35 8
q-21 0 -40 -10q-17 -8 -33 -23q-65 -59 -97 -143q-22 -58 -36 -149l-5 -41q-2 -10 -9 -11q-10 -2 -16 -4q-55 -16 -90 -36q-17 -9 -29 -24q-8 -8 -10 -21v-3q0 -13 14 -11q4 0 8 2l32 11q46 16 83 27q6 2 7.5 1t0.5 -6q-8 -70 -15 -104q-17 -81 -36 -126q-5 -11 -11 -16
q-22 -20 -39 -47q-6 -10 -7 -15q-1 -2 -1 -6q0 -5 5 -10q7 -8 22 -14q3 -1 8 -1q9 0 17 5q8 6 17 18q17 20 32 53q8 14 19 21q27 19 52 20l11 1q9 0 20 -2t16 -3t17 -3t23 -2q27 0 51 12z" />
    <glyph glyph-name="yen" unicode="&#xa5;" horiz-adv-x="356" 
d="M191 173l31 64q8 14 11 21q5 5 7 6q9 3 22.5 8.5t23.5 6.5q18 3 36 3q13 0 20 -1q6 -2 9 4q1 1 1 4q0 4 -4 8q-3 2 -11 5q-12 3 -32 5q-10 0 -32 2q-8 0 -4 7l3 5q6 8 10 14.5t7 11.5l28 41q72 104 140 190q26 33 45 67q4 10 4 15q0 8 -7 18t-14 10q-4 0 -12 -6
q-16 -16 -33 -37.5t-32 -41.5q-77 -103 -139 -187q-32 -40 -52 -58q-3 -2 -13.5 -11t-21.5 -13l-6 -2q-3 0 -5 8t-2 23q-1 52 14 137q10 47 31 107q5 13 10 34v5q0 13 -10 25q-5 5 -11 5q-5 0 -10 -5q-4 -4 -5 -6q-6 -6 -15 -23q-19 -36 -34 -95q-15 -70 -15 -128
q0 -35 7 -62.5t26 -49.5q1 -1 4.5 -3.5t4.5 -6.5l-1 -2l-10 -2q-56 -15 -83 -29q-24 -11 -40 -27q-13 -13 -8 -26q1 -6 4 -8t8 -3q14 0 26 6q63 19 87 29q6 2 9 1q0 -1 -3 -7q-10 -23 -13 -28l-16 -38q-3 -9 -12 -11q-43 -14 -71 -29q-22 -13 -33 -25q-10 -10 -10 -23
q0 -23 14 -23l9 2q11 3 25 9l42 15q5 1 6.5 0.5t0.5 -4.5q-4 -23 -8 -69l-1 -8q0 -4 2 -12q1 -7 11 -13q6 -2 7 -2q5 0 5 8q3 18 11 40l32 79q3 7 12 10q36 17 108 37q2 0 6.5 1.5t7.5 0.5h2q4 0 6 6l1 7q0 17 -20 20h-6q-25 -2 -51 -6q-20 -4 -32 -4q0 3 1 4z" />
    <glyph glyph-name="plus" unicode="+" horiz-adv-x="308" 
d="M298 317q9 3 10 10q2 29 -22 30h-3l-27 1q-13 0 -37 -2h-4q-3 0 -3 2t1 6q7 19 11 34q10 27 13 44l1 6q-2 14 -13 23q-7 6 -14 6q-6 0 -14 -8q-10 -11 -16 -25q-27 -53 -39 -97q-1 -7 -9 -9q-7 -2 -13.5 -4t-11.5 -3q-39 -12 -65 -26q-18 -9 -27 -17q-9 -7 -9 -18
q0 -5 1 -8q5 -10 6 -11q7 -13 21 -11q6 2 9 2q19 5 33 10t24 8q7 3 21 7q7 3 7 -4v-11q0 -9 -0.5 -23t0.5 -33t22 -25l5 -1q4 0 6 2.5t3 8.5q4 24 14 54q2 9 5.5 20.5t6.5 26.5q1 5 7 8l22 6q9 3 25.5 9t27.5 7z" />
    <glyph glyph-name="multiply" unicode="&#xd7;" horiz-adv-x="289" 
d="M237 408q5 8 0 14q-10 14 -21 14q-8 0 -16 -7l-2 -2q-32 -28 -46 -44q-4 -5 -5.5 -4.5t-3.5 5.5l-15 33q-16 31 -21 40q-8 14 -25 14q-12 0 -17.5 -5t-5.5 -16q0 -7 2 -16t3 -13q13 -48 38 -97q4 -7 0 -14l-14 -22q-21 -38 -30 -62q-7 -19 -8 -32v-3q0 -13 12 -21l12 -5
l6 -1q10 0 17 9l5 7q12 20 17 30l12 22l11 20q2 3 3.5 3t4.5 -2l7 -8q-1 1 38 -41q8 -7 17 -7q6 0 16 4q8 3 8 8q0 3 -3 9q-12 17 -30 53l-21 38q-3 6 0 11l12 20q5 8 13 23.5t15 23.5q10 15 15 21z" />
    <glyph glyph-name="divide" unicode="&#xf7;" horiz-adv-x="347" 
d="M221 445q-7 8 -17 8q-8 0 -15 -4q-23 -12 -25 -39v-4q0 -13 10 -18q10 -4 17 -4q22 0 32 21q4 12 4 19q1 13 -6 21zM91 321q-31 -1 -61 -6q-12 -2 -19 -4q-6 -2 -9 -7.5t-1 -10.5q0 -8 7 -8q12 -2 18 -2l22 1q30 2 44 2q118 0 176 -3l68 -5q8 0 11 10v3q0 6 -6 8l-15 3
l-73 11q-54 10 -117 10q-13 0 -45 -2zM127 180l11 3q12 4 18.5 13.5t6.5 21.5q0 7 -1 10t-1 8q-1 7 -3.5 9.5t-9.5 4.5q-20 3 -39 -10t-19 -38v-2q0 -19 21 -21h6q7 0 10 1zM138 221q4 2 6 -1q5 -3 0 -6q-9 -6 -19 -6q-6 0 -9 1q6 6 22 12z" />
    <glyph glyph-name="equal" unicode="=" horiz-adv-x="312" 
d="M111 348q-22 -3 -41 -10q-18 -6 -19 -23v-5q0 -15 17 -12q15 4 25 5q36 6 108 14l29 3q10 1 30 5q7 1 16.5 3t22.5 3q8 0 10 11q0 7 -8 10l-5 2l-20 3q-6 0 -18 1.5t-20 0.5q-52 0 -127 -11zM88 235q-38 -6 -56 -12q-15 -7 -19 -9q-13 -7 -13 -23q0 -8 2 -10.5t8 -3.5
q5 0 13 2q49 10 121 17l41 4q38 2 69 7l47 5q5 1 8 5t3 10q0 7 -11 8q-7 1 -16.5 1t-15.5 1q-40 6 -75 5q-38 1 -106 -7z" />
    <glyph glyph-name="greater" unicode="&#x3e;" horiz-adv-x="404" 
d="M341 375q-21 27 -49 46q-11 8 -56 34q-33 21 -67 29l-13 3q-8 0 -9 -5q-2 -8 -2 -10q0 -5 4 -15q4 -8 16 -15l9 -4.5t12 -5.5q5 -3 20 -10t27 -15q22 -14 66 -44q6 -4 18 -14q3 -2 3 -3.5t-3 -4.5l-14 -10q-22 -16 -81 -51q-6 -3 -39.5 -23.5t-61.5 -43.5q-8 -8 -43 -35
q-1 -1 -16 -13q-8 -8 -9 -10q-3 -3 -3 -7q0 -5 2.5 -9.5t6.5 -6.5q3 -1 6 0l12 6q9 5 23.5 13t25.5 13l27 12q66 33 149 90q29 23 38 32q14 14 14 36q-2 26 -13 41z" />
    <glyph glyph-name="less" unicode="&#x3c;" horiz-adv-x="404" 
d="M63 243q21 -27 49 -46q11 -8 56 -34q33 -21 67 -29l13 -3q8 0 9 5q2 8 2 10q0 5 -4 15q-4 8 -16 15l-9 4.5t-12 5.5q-5 3 -20 10t-27 15q-22 14 -66 44q-6 4 -18 14q-3 2 -3 3.5t3 4.5l14 10q22 16 81 51q6 3 39.5 23.5t61.5 43.5q9 8 43 35q1 1 16 13q8 8 9 10q3 3 3 7
q0 5 -2.5 9.5t-6.5 6.5q-3 2 -6 0l-12 -6q-9 -5 -23.5 -13t-25.5 -13l-27 -12q-66 -33 -149 -90q-29 -23 -38 -32q-14 -14 -14 -36q2 -26 13 -41z" />
    <glyph glyph-name="plusminus" unicode="&#xb1;" horiz-adv-x="501" 
d="M345 288q8 0 11 7q2 8 2 13q0 17 -17 21q-1 1 -3 1q-42 10 -63 12q-6 1 -6.5 2.5t2.5 6.5l18 31q13 21 21 40q3 6 3 12q0 9 -8 19q-7 9 -15 9q-5 0 -13 -5q-12 -9 -21 -21q-38 -46 -58 -87q-3 -7 -11 -7t-26 -2q-41 -4 -68 -11q-20 -5 -31 -11q-13 -9 -12 -24q0 -4 2 -12
q4 -13 20 -15h8q28 2 40 4l20 2q14 2 22 2q6 1 6 -6l-3 -10q-1 -9 -5 -27l-6 -27l-1 -6q0 -15 17 -23q4 -3 7 -3q5 0 9 9q8 19 28 57q7 12 19 36q2 6 8 6q16 2 23 2q9 1 26.5 3.5t28.5 1.5h26zM-19 32l95 10q62 8 148 11q41 3 61 3h22q4 0 9 0.5t12 -0.5q24 -1 52 11
q13 6 19 15q2 4 2 6q0 4 -5 7q-7 6 -20 8l-29 1q-30 0 -42 1q-8 0 -18 0.5t-18 -0.5q-112 -2 -168 -5q-52 -4 -88 -11q-24 -6 -35 -12q-19 -10 -27 -28q-1 -2 -1 -6q0 -8 9 -10q5 -1 14 -1h8z" />
    <glyph glyph-name="approxequal" unicode="&#x2248;" horiz-adv-x="404" 
d="M76 276.5q1 -5.5 3 -9.5t5 -4t5 4q7 15 18 28q23 25 50 25q16 0 29 -8l13 -6q5 -2 15 -8q18 -7 37 -7q25 0 47 16q9 6 27 20q18 18 21 22q7 7 8 14q0 8 -4 9q-2 2 -4.5 0t-3.5 -3q-15 -14 -36 -25q-20 -11 -44 -11q-23 0 -50 15q-19 13 -33 19q-9 5 -22 5t-22 -4
q-23 -12 -37 -28q-18 -22 -23 -56q0 -2 1 -7.5zM269 169q12 6 17 11q38 38 47 49t11 17q2 7 -3 11q-2 2 -5 0t-4 -3q-22 -18 -33 -26q-10 -8 -20 -11q-27 -8 -50 -8l-17 1q-24 3 -47 15q-12 6 -24 6q-11 0 -27 -7q-18 -7 -38 -27q-21 -21 -25 -46l-1 -8q0 -8 3 -14
q0 -4 5 -6q3 0 7 4q2 3 3.5 6t4.5 6q25 23 49 32q8 4 18 4q6 0 9 -1q11 -2 31 -10q19 -7 37 -7q31 2 52 12z" />
    <glyph glyph-name="asciitilde" unicode="~" horiz-adv-x="438" 
d="M168 256q13 -2 37 -14q24 -10 44 -13q14 -2 22 -2q21 0 39 9q32 16 57 34q9 6 18 19q4 6 2 16q-3 8 -10 4q-7 -5 -21 -11q-41 -19 -76 -19q-8 0 -22 2q-36 6 -55 17q-21 13 -37.5 19.5t-36.5 6.5q-23 0 -45 -17q-13 -10 -25 -31q-10 -16 -9 -37q0 -10 6 -21q6 -7 12 0
q10 12 23.5 19.5t34.5 16.5q9 4 23 4q7 0 19 -2z" />
    <glyph glyph-name="asciicircum" unicode="^" horiz-adv-x="600" 
d="M313 604q-28 -24 -50 -55q-41 -56 -74 -56q-26 0 -44 36q1 -2 5 -2q8 0 20 15l109 117q15 13 33 13q18 1 34 -12l110 -113q18 -19 25 -11q-18 -38 -45 -38q-30 0 -73 53q-23 28 -50 53z" />
    <glyph glyph-name="percent" unicode="%" horiz-adv-x="519" 
d="M348 534q-35 -45 -57 -69q-15 -17 -41 -55l-12 -19q-42 -62 -61 -95q-20 -36 -58 -110l-24 -47q-20 -39 -35 -90q-2 -9 -6 -16q-4 -12 -4 -18q0 -9 2.5 -12t10.5 -3q25 -2 37 20q10 22 14 34q37 83 66 133q88 144 195 290q54 74 80 112l12 22q2 3 2 10q0 6 -2 9l-3 8
q-2 6 -4.5 8t-8.5 2q-10 0 -15 -2q-1 0 -4.5 -2t-1.5 -6q1 -1 -0.5 -2.5t-1.5 -2.5q-12 -15 -15 -17q-40 -34 -67 -50q-7 -5 -17 -10l-16 -8q-17 -8 -38 -8q-16 0 -29 10q-12 8 -19 10q-2 1 -5 1q-6 0 -7 -7q-3 -6 0 -12q2 -10 2 -14q0 -14 -8 -30q-16 -33 -46 -60
q-17 -15 -33 -19q-3 -1 -7 -1q-6 0 -9 10q-1 3 -1 9q0 10 6 28q9 25 30 55q30 41 70 64q10 6 23 9h3q7 0 9 -5q5 -6 10 -9q2 -1 6 -1q6 0 6 8v3q0 5 -4 13q-9 13 -22 22q-13 8 -25 8q-7 0 -15 -3q-16 -5 -26 -13q-57 -40 -86 -96q-17 -36 -17 -65q0 -20 12.5 -36.5
t29.5 -22.5q12 -4 18 -4q14 0 31 10q49 31 70 85q5 13 5 24q0 10 -4 18q0 3 1 4q23 -16 46 -16q25 0 62 21q-1 -3 -4 -4zM346 141q-1 6 -2 10q0 2 -2 8q-3 11 -16 14h-2q-5 0 -5 -5l1 -15q-1 -34 -27 -70q-13 -17 -28 -26q-4 -3 -7 -3q-6 0 -7 10q-1 4 -1 11q0 11 1 16
q6 39 26 76q14 26 32 40q7 5 8 5q2 0 7 -8q7 -10 14 -1q6 6 6 12t-6 12q-13 11 -32 16q-3 1 -8 1q-11 0 -21 -7q-9 -7 -18 -17q-33 -39 -46 -84q-6 -19 -6 -38q0 -31 18 -49t42 -18q18 0 31 10q46 32 49 86q0 8 -1 14z" />
    <glyph glyph-name="perthousand" unicode="&#x2030;" horiz-adv-x="617" 
d="M348 534q-35 -45 -57 -69q-15 -17 -41 -55l-12 -19q-42 -62 -61 -95q-20 -36 -58 -110l-24 -47q-20 -39 -35 -90q-2 -9 -6 -16q-4 -12 -4 -18q0 -9 2.5 -12t10.5 -3q25 -2 37 20q10 22 14 34q37 83 66 133q88 144 195 290q54 74 80 112l12 22q2 3 2 10q0 6 -2 9l-3 8
q-2 6 -4.5 8t-8.5 2q-10 0 -15 -2q-1 0 -4.5 -2t-1.5 -6q1 -1 -0.5 -2.5t-1.5 -2.5q-12 -15 -15 -17q-40 -34 -67 -50q-7 -5 -17 -10l-16 -8q-17 -8 -38 -8q-16 0 -29 10q-12 8 -19 10q-2 1 -5 1q-6 0 -7 -7q-3 -6 0 -12q2 -10 2 -14q0 -14 -8 -30q-16 -33 -46 -60
q-17 -15 -33 -19q-3 -1 -7 -1q-6 0 -9 10q-1 3 -1 9q0 10 6 28q9 25 30 55q30 41 70 64q10 6 23 9h3q7 0 9 -5q5 -6 10 -9q2 -1 6 -1q6 0 6 8v3q0 5 -4 13q-9 13 -22 22q-13 8 -25 8q-7 0 -15 -3q-16 -5 -26 -13q-57 -40 -86 -96q-17 -36 -17 -65q0 -20 12.5 -36.5
t29.5 -22.5q12 -4 18 -4q14 0 31 10q49 31 70 85q5 13 5 24q0 10 -4 18q0 3 1 4q23 -16 46 -16q25 0 62 21q-1 -3 -4 -4zM346 141q-1 6 -2 10q0 2 -2 8q-3 11 -16 14h-2q-5 0 -5 -5l1 -15q-1 -34 -27 -70q-13 -17 -28 -26q-4 -3 -7 -3q-6 0 -7 10q-1 4 -1 11q0 11 1 16
q6 39 26 76q14 26 32 40q7 5 8 5q2 0 7 -8q7 -10 14 -1q6 6 6 12t-6 12q-13 11 -32 16q-3 1 -8 1q-11 0 -21 -7q-9 -7 -18 -17q-33 -39 -46 -84q-6 -19 -6 -38q0 -31 18 -49t42 -18q18 0 31 10q46 32 49 86q0 8 -1 14zM516 141q-1 6 -2 10q0 2 -2 8q-3 11 -16 14h-2
q-5 0 -5 -5l1 -15q-1 -34 -27 -70q-13 -17 -28 -26q-4 -3 -7 -3q-6 0 -7 10q-1 4 -1 11q0 11 1 16q6 39 26 76q14 26 32 40q7 5 8 5q2 0 7 -8q7 -10 14 -1q6 6 6 12t-6 12q-13 11 -32 16q-3 1 -8 1q-11 0 -21 -7q-9 -7 -18 -17q-33 -39 -46 -84q-6 -19 -6 -38q0 -31 18 -49
t42 -18q18 0 31 10q46 32 49 86q0 8 -1 14z" />
    <glyph glyph-name="at" unicode="@" horiz-adv-x="592" 
d="M254 117q2 -25 19 -43l14 -12q22 -14 43 -14q13 0 24 4q21 5 44 20q30 19 63 55q47 53 70 123q11 35 11 69q0 75 -59 129q-32 29 -76 40q-19 4 -41 4q-28 0 -55 -6q-99 -22 -177 -98q-27 -26 -56 -65q-52 -77 -70 -152q-8 -35 -8 -66q0 -25 4 -45q13 -63 55 -101
q21 -20 55 -35q51 -24 95 -24q51 0 86 29l11 9q4 4 1 9q-6 8 -15 8q-5 0 -10 -3l-21 -13q-26 -15 -63 -15q-34 0 -71 17q-36 16 -54 52q-20 43 -20 100q2 41 13 77q41 127 146 208q73 57 152 68q10 2 28 2q25 0 43 -5q37 -11 48 -48l1 -4q4 -15 4 -35q0 -17 -3 -35
q-15 -75 -62 -139q-35 -46 -80 -75q-11 -7 -28 -13l-6 -2q-3 0 -3.5 2.5t-0.5 6.5l3 17q6 27 30 70l14 25q2 4 2 5q0 4 -3 8q-9 12 -22 12q-11 0 -19 -7q-7 -6 -19 -20q-4 -4 -5 -4t-5 4q-11 12 -30 20q-13 5 -25 5q-18 0 -34 -10q-11 -7 -21 -17q-38 -36 -60 -87
q-10 -25 -13 -42l-1 -6q0 -12 10 -22q7 -9 21 -14q8 -3 14 -3q7 0 13 3l19 12q23 17 54 50l24 24q2 -3 2 -7zM195 152q22 24 36 32q12 9 23 10h2q4 0 7.5 -2.5t5.5 -5.5q1 -1 -2 -4q-8 -6 -12 -8q-21 -12 -61 -43l-27 -23q10 23 28 44z" />
    <glyph glyph-name="ampersand" unicode="&#x26;" horiz-adv-x="517" 
d="M51 31l-1 -9q0 -20 22 -29q14 -6 25 -6q13 0 30 10q16 9 42 33q28 24 40 36l19 17q4 5 5.5 4.5t4.5 -5.5q18 -27 42 -58q16 -23 24 -31q12 -14 28 -15h2q11 0 6 10q-1 6 -3 10.5t-3 7.5q-9 20 -36 64q-10 15 -26 47q-2 3 -2 5t3 6l4 3l96 84l31 25q4 2 3.5 5t-4.5 5
q-6 3 -13 0q-14 -7 -17 -9l-53 -39l-19 -15q-8 -6 -17 -14t-21 -16q-5 -4 -6.5 -3.5t-3.5 5.5q-12 34 -17 61v4q0 8 5 13l54 63l21 24q41 49 57 71q29 40 39 69q5 15 5 27q0 10 -5 23q-8 17 -26 28t-37 11q-7 0 -10 -1q-18 -4 -35 -15q-40 -25 -76 -74q-43 -60 -53 -143
q-3 -22 -3 -46q0 -16 1 -25q0 -8 -4 -12q-8 -9 -18 -22t-15 -20q-36 -47 -56 -87q-21 -36 -27 -66q-2 -6 -2 -11zM238.5 324.5q0.5 1.5 0.5 2.5q10 44 26 78q26 56 68 90q15 14 30 19q7 4 7 -2q0 -8 -3.5 -15.5t-4.5 -11.5q-10 -25 -33 -55q-30 -43 -85 -105l-1.5 -2
t-3.5 -2q-1 2 -0.5 3.5zM205 139l6 -12q3 -5 3 -6.5t-5 -4.5q-2 -2 -34 -28l-55 -44l-9 -6q-2 2 -0.5 4.5t1.5 3.5q12 27 40 72q27 41 31 46l7 7z" />
    <glyph glyph-name="copyright" unicode="&#xa9;" horiz-adv-x="352" 
d="M274 567q-20 -66 -74 -105q-19 -14 -42 -19q-14 -2 -19 -2q-16 0 -26.5 8t-19.5 28q-10 23 -10 49q0 9 2 27q8 48 46 81t88 33q9 0 14 -1q14 -2 19 -4q3 -1 10 -8q1 0 2.5 -1.5t3.5 0.5q3 1 3 6q-2 6 -4 8q-9 16 -32 25q-18 6 -36 6q-14 0 -28 -3q-57 -13 -91 -63
q-30 -43 -30 -89q0 -35 18 -71q21 -39 61 -54q23 -7 37 -7q31 0 60 17q40 22 64 69q14 31 12 53q0 14 -1 25t-2 19q-2 14 -4 19q-4 8 -9 10q-4 2 -6 1t-2 -5v-18q0 -23 -4 -34zM194 600q8 7 21 10q3 1 7 1q6 0 10 -9q2 -5 4 -13q5 -12 11 -10q7 2 7 12q0 15 -11 26
q-18 20 -49 20q-32 0 -51 -25q-18 -22 -28 -55q-3 -10 -3 -21q0 -15 6 -30q4 -11 16 -18q17 -11 32 -11q14 0 30 11l6 5q14 12 40 40q4 6 5 9q3 4 -2 7l-5 2q-2 0 -8 -4l-31 -25q-15 -12 -28 -17q-8 -3 -12 -3t-5 4t-1 15q5 46 39 79z" />
    <glyph glyph-name="registered" unicode="&#xae;" horiz-adv-x="363" 
d="M296.5 653.5q2.5 2.5 1.5 9.5q0 12 -7 22q-16 23 -44 25q-28 3 -59 -12q-56 -29 -94 -79q-44 -57 -44 -122q0 -7 2 -25q3 -29 16 -50q19 -32 52 -36q4 -1 13 -1q14 0 32 5q93 32 135 121q14 29 13 57q0 36 -18 66l-9 17q8 0 10.5 2.5zM255 622q-5 18 -15 28q-4 6 3 6
l12 2q3 0 5.5 -3t6.5 -9q14 -24 19 -37t5 -25q0 -13 -4 -22q-11 -34 -39 -65q-5 -5 -12 -4q-6 1 -11.5 2t-10.5 2q-15 5 -20 17q-3 3 2 5q22 2 34.5 15.5t21.5 36.5q4 13 4 32q0 13 -1 19zM178 579q5 9 7 15q0 2 2 2q3 3 9.5 5t12.5 2q5 0 9 -2t4.5 -3.5t-1.5 -5.5l-9 -10
q-16 -11 -41 -20q2 8 7 17zM128 437q-13 0 -20 2q-4 0 -7 1t-5 2q-14 9 -15 21q-2 19 5 45q10 36 37 68l2 1q1 -2 0 -5q-6 -26 -10 -80v-6q0 -6 2 -16l6 -11q6 -6 8 -6q6 0 7 4t1 5l8 31q6 22 11 34q2 -7 6.5 -23.5t11.5 -28.5t18 -20q-40 -18 -66 -18z" />
    <glyph glyph-name="trademark" unicode="&#x2122;" horiz-adv-x="800" 
d="M263 526q-7 -11 -23 -31l-25 -36l-60 -87q-4 -8 -14 -22q-37 -57 -72 -114q-26 -43 -45 -82q-18 -36 -27 -75l-7 -25q-4 -9 -7 -25q-3 -12 -3 -24q2 -17 18 -20h2q5 0 8 6l8 18q22 42 43 71q19 26 51 80l16 26q16 26 23 39q64 106 112 178q30 44 88 132q5 7 13 7
q23 1 69 5q34 2 51 4l47 6q31 4 44 5q14 2 19 11q8 8 5 15q-2 4 -7 5t-6 1q-30 2 -43 4q-41 7 -123 7q-32 0 -48 -1q-13 0 -19 2t-10 2q-6 0 -10 -3q-6 -4 -20 -6q-33 -2 -89 -8q-79 -9 -130 -22q-33 -7 -53 -18q-16 -7 -23 -15q-13 -16 -14 -33q0 -12 12 -11q4 0 12 2
l65 15q79 17 151 23q3 0 11 1.5t15 0.5q-1 -4 -5 -8zM713 413q-23 -52 -27 -61q-38 -87 -57 -160q-11 -42 -14 -78q-1 -6 -1 -18q0 -13 2 -30t3 -25q0 -7 3 -13q3 -8 10.5 -13.5t16.5 -6.5q9 0 10 8q4 13 16 39q10 22 14 40q1 8 5 22q7 34 19.5 70t15.5 45q38 111 81 198
l61 119q20 38 27 59l2 8q0 8 -10 15q-8 5 -16 5t-19 -7l-8 -8l-28 -29l-42 -43q-47 -50 -89 -104q-57 -73 -112 -166l-6 -9q-1 2 0 4t1 3q9 23 15 45q14 53 36.5 105t54.5 115q27 51 30 58q2 3 2 9q0 4 -6 10q-10 8 -21 11q-3 1 -8 1q-12 0 -19 -10q-4 -6 -7 -8
q-29 -26 -58 -60l-16 -17q-21 -24 -44 -55.5t-44 -61.5q-43 -62 -90 -156q-22 -40 -46 -95q-29 -65 -48 -133q-2 -5 -4 -21v-4q0 -7 6 -12q5 -5 10 -5q6 0 10 8l9 24q28 76 68 160q33 67 61 116q34 62 85 138l1.5 2t3.5 2l-3 -7q-11 -26 -23 -65q-11 -48 -11 -81v-35
q0 -6 2 -18q2 -13 12.5 -20.5t24.5 -5.5q11 3 16 11q17 29 53 85q38 59 97 133l12 14z" />
    <glyph glyph-name="degree" unicode="&#xb0;" horiz-adv-x="340" 
d="M239 584q-1 6 -2 10q0 2 -2 8q-3 11 -16 14h-2q-5 0 -5 -5l1 -15q-1 -34 -27 -70q-13 -17 -28 -26q-5 -3 -7 -3q-6 0 -7 10q-1 4 -1 11q0 11 1 16q6 39 26 76q14 26 32 40q7 5 8 5q2 0 7 -8q7 -10 14 -1q6 6 6 12t-6 12q-13 11 -32 16q-3 1 -8 1q-11 0 -21 -7
q-9 -7 -18 -17q-33 -39 -46 -84q-6 -19 -6 -38q0 -31 18 -49t42 -18q18 0 31 10q46 32 49 86q0 8 -1 14z" />
    <glyph glyph-name="bar" unicode="|" horiz-adv-x="252" 
d="M115 -63q5 -4 9 -4q6 0 9 11v5q4 21 8 65q6 77 7 120q4 82 4 123l-1 93q0 71 -3 143q1 22 -5 62l-3 26q-3 15 -17 18q-2 1 -5 1q-6 0 -7 -9q-1 -7 -5 -21q-6 -24 -5 -45q-1 -13 -1 -40q0 -37 1 -55l3 -116q0 -36 2 -114q0 -91 1 -136q-1 -27 -1 -81v-9q0 -15 1 -22
q0 -8 6 -12z" />
    <glyph glyph-name="brokenbar" unicode="&#xa6;" horiz-adv-x="258" 
d="M106.5 513.5q-0.5 -5.5 0.5 -13.5q0 -6 1.5 -20t0.5 -26q0 -23 1 -34q1 -7 4 -10.5t11 -5.5h3q6 0 10 7l3 13l8 44q4 21 6 43q1 9 1 22.5t1 22.5q1 5 1 15q0 11 -2 33q0 6 -1 10t-2 7q-3 11 -9 16t-17 6h-6q-7 0 -10.5 -4t-4.5 -14v-6l2 -43q0 -14 -1 -22q0 -5 -0.5 -15
t0.5 -17q0 -3 -0.5 -8.5zM100.5 182.5q-0.5 -5.5 0.5 -13.5q0 -6 1.5 -20t0.5 -26q0 -23 1 -34q1 -7 4 -10.5t11 -5.5h3q6 0 10 7l3 13l8 44q4 21 6 43q1 9 1 22.5t1 22.5q1 5 1 15q0 11 -2 33q0 6 -1 10t-2 7q-3 11 -9 16t-17 6h-6q-7 0 -10.5 -4t-4.5 -14v-6l2 -43
q0 -14 -1 -22q0 -5 -0.5 -15t0.5 -17q0 -3 -0.5 -8.5z" />
  </font>
</defs>
</svg>
